<svg width="116" height="122" viewBox="0 0 116 122" fill="none" xmlns="http://www.w3.org/2000/svg">
<rect width="116" height="122" fill="#181818"/>
<path d="M32.594 31.3663C32.2684 31.3663 31.9561 31.4957 31.7259 31.7259C31.4957 31.9561 31.3663 32.2684 31.3663 32.594V79.4929C31.3663 79.9349 31.602 80.3376 31.9802 80.5586L55.8421 94.3188C56.0246 94.4244 56.2311 94.4811 56.4418 94.4837C56.6525 94.4863 56.8603 94.4346 57.0453 94.3336L82.2921 80.4996C82.4859 80.3936 82.6474 80.2373 82.7598 80.0472C82.8721 79.857 82.9311 79.6401 82.9305 79.4192V32.594C82.9305 32.2684 82.8012 31.9561 82.5709 31.7259C82.3407 31.4957 82.0284 31.3663 81.7028 31.3663H32.594ZM24 32.594C24 27.8501 27.8501 24 32.594 24H81.7028C86.4467 24 90.2968 27.8501 90.2968 32.594V79.4242C90.2962 80.9647 89.8816 82.4767 89.0963 83.802C88.3109 85.1273 87.1838 86.2171 85.8329 86.9574L60.586 100.796C59.2912 101.505 57.8356 101.868 56.3596 101.851C54.8836 101.834 53.4369 101.437 52.159 100.698L28.3019 86.9378C26.9942 86.1839 25.9081 85.099 25.1529 83.792C24.3978 82.4851 24.0001 81.0023 24 79.4929V32.594ZM42.4158 44.8712C42.4158 43.8944 42.8038 42.9576 43.4946 42.2668C44.1853 41.5761 45.1221 41.1881 46.0989 41.1881H68.7626C69.7395 41.1881 70.6763 41.5761 71.367 42.2668C72.0578 42.9576 72.4458 43.8944 72.4458 44.8712V74.8079C72.4462 75.4918 72.2563 76.1623 71.8972 76.7442C71.5381 77.3262 71.0241 77.7968 70.4127 78.1031L59.0784 83.7703C58.5675 84.0253 58.0043 84.1581 57.4333 84.1581C56.8622 84.1581 56.299 84.0253 55.7881 83.7703L44.4538 78.1031C43.8422 77.7978 43.3277 77.3283 42.9678 76.7473C42.6079 76.1662 42.4167 75.4964 42.4158 74.8128V71.9744C42.4158 70.9975 42.8038 70.0607 43.4946 69.37C44.1853 68.6792 45.1221 68.2912 46.0989 68.2912C47.0758 68.2912 48.0126 68.6792 48.7033 69.37C49.3941 70.0607 49.7821 70.9975 49.7821 71.9744V72.5342L57.4333 76.3549L65.0795 72.5342V64.3281H52.2375C51.2607 64.3281 50.3239 63.9401 49.6332 63.2493C48.9424 62.5586 48.5544 61.6218 48.5544 60.645C48.5544 59.6681 48.9424 58.7313 49.6332 58.0406C50.3239 57.3499 51.2607 56.9618 52.2375 56.9618H65.0795V48.5544H46.0989C45.1221 48.5544 44.1853 48.1663 43.4946 47.4756C42.8038 46.7849 42.4158 45.8481 42.4158 44.8712Z" fill="#F8F8F8"/>
</svg>
