<svg width="116" height="122" viewBox="0 0 116 122" fill="none" xmlns="http://www.w3.org/2000/svg">
<rect width="116" height="122" fill="#181818"/>
<path d="M58 20V75.25M58 75.25V88.25C58 90.8212 57.2376 93.3346 55.8091 95.4724C54.3806 97.6102 52.3503 99.2765 49.9749 100.26C47.5995 101.244 44.9856 101.502 42.4638 101C39.9421 100.499 37.6257 99.2605 35.8076 97.4424C33.9895 95.6243 32.7514 93.3079 32.2498 90.7862C31.7482 88.2644 32.0056 85.6506 32.9896 83.2751C33.9735 80.8997 35.6398 78.8694 37.7776 77.4409C39.9154 76.0124 42.4288 75.25 45 75.25M58 75.25H45M45 75.25C41.5522 75.25 38.2456 73.8804 35.8076 71.4424C33.3696 69.0044 32 65.6978 32 62.25C32 58.8022 33.3696 55.4956 35.8076 53.0576C38.2456 50.6196 41.5522 49.25 45 49.25M45 49.25H58M45 49.25H71M45 49.25C41.5522 49.25 38.2456 47.8804 35.8076 45.4424C33.3696 43.0044 32 39.6978 32 36.25C32 32.8022 33.3696 29.4956 35.8076 27.0576C38.2456 24.6196 41.5522 23.25 45 23.25H71C74.4478 23.25 77.7544 24.6196 80.1924 27.0576C82.6304 29.4956 84 32.8022 84 36.25C84 39.6978 82.6304 43.0044 80.1924 45.4424C77.7544 47.8804 74.4478 49.25 71 49.25M71 49.25C74.4478 49.25 77.7544 50.6196 80.1924 53.0576C82.6304 55.4956 84 58.8022 84 62.25C84 65.6978 82.6304 69.0044 80.1924 71.4424C77.7544 73.8804 74.4478 75.25 71 75.25C67.5522 75.25 64.2456 73.8804 61.8076 71.4424C59.3696 69.0044 58 65.6978 58 62.25C58 58.8022 59.3696 55.4956 61.8076 53.0576C64.2456 50.6196 67.5522 49.25 71 49.25Z" stroke="#F8F8F8" stroke-width="6.5"/>
</svg>
