<svg width="116" height="122" viewBox="0 0 116 122" fill="none" xmlns="http://www.w3.org/2000/svg">
<rect width="116" height="122" fill="#181818"/>
<path d="M57.8311 21.0002C56.3978 21.0002 54.9987 21.5234 53.9209 22.6012L45.9214 30.686C45.4892 30.9192 45.1252 31.2547 44.8579 31.6642L19.6168 56.9025C18.5814 57.9405 18 59.3466 18 60.8127C18 62.2787 18.5814 63.6849 19.6168 64.7228L53.9209 99.027C54.9618 100.057 56.3669 100.634 57.8311 100.634C59.2953 100.634 60.7004 100.057 61.7412 99.027L96.0454 64.7228C97.0807 63.6849 97.6621 62.2787 97.6621 60.8127C97.6621 59.3466 97.0807 57.9405 96.0454 56.9025L61.7384 22.5984C61.2255 22.0864 60.6159 21.6814 59.9452 21.407C59.2744 21.1327 58.5558 20.9944 57.8311 21.0002ZM57.8311 26.7758L91.8679 60.8127L57.8311 94.8495L23.7942 60.8127L47.3462 37.2636L52.3227 42.2401C52.195 42.7331 52.1347 43.241 52.1436 43.7502C52.1436 45.8489 53.2868 47.649 54.9873 48.6386V72.9868C53.2868 73.9764 52.1436 75.7736 52.1436 77.8752C52.1436 79.3836 52.7428 80.8302 53.8094 81.8968C54.876 82.9635 56.3226 83.5627 57.8311 83.5627C59.3395 83.5627 60.7861 82.9635 61.8527 81.8968C62.9193 80.8302 63.5186 79.3836 63.5186 77.8752C63.5186 75.7765 62.3754 73.9764 60.6748 72.9868V50.6832L69.3852 59.3908C69.1676 60.2314 69.1454 61.1107 69.3204 61.9612C69.4954 62.8117 69.863 63.6108 70.3948 64.2972C70.9266 64.9836 71.6086 65.5391 72.3884 65.9209C73.1683 66.3028 74.0252 66.501 74.8936 66.5002C76.4015 66.4994 77.8474 65.8999 78.9134 64.8333C79.9794 63.7668 80.5782 62.3206 80.5782 60.8127C80.5794 59.9441 80.3816 59.0868 79.9999 58.3066C79.6182 57.5264 79.0629 56.8441 78.3764 56.3119C77.6899 55.7798 76.8907 55.412 76.04 55.2368C75.1892 55.0617 74.3097 55.0838 73.4688 55.3015L63.3394 45.1721C63.557 44.3314 63.5792 43.4522 63.4042 42.6016C63.2292 41.7511 62.8617 40.952 62.3299 40.2656C61.798 39.5792 61.116 39.0238 60.3362 38.6419C59.5563 38.26 58.6994 38.0619 57.8311 38.0627C57.3229 38.0541 56.8159 38.1144 56.3239 38.2418L51.3473 33.2653L57.8311 26.7758Z" fill="#F8F8F8"/>
</svg>
