<svg width="117" height="122" viewBox="0 0 117 122" fill="none" xmlns="http://www.w3.org/2000/svg">
<rect x="0.25" width="116" height="122" fill="#181818"/>
<path d="M35.5942 31.3664C35.2686 31.3664 34.9563 31.4958 34.726 31.726C34.4958 31.9563 34.3664 32.2686 34.3664 32.5942V79.4939C34.3664 79.9359 34.6022 80.3386 34.9803 80.5595L58.8427 94.3201C59.0251 94.4256 59.2316 94.4824 59.4423 94.4849C59.6531 94.4875 59.8609 94.4358 60.0459 94.3348L85.2931 80.5006C85.4869 80.3946 85.6484 80.2383 85.7608 80.0481C85.8732 79.858 85.9321 79.6411 85.9315 79.4202V32.5942C85.9315 32.2686 85.8022 31.9563 85.5719 31.726C85.3417 31.4958 85.0294 31.3664 84.7038 31.3664H35.5942ZM27 32.5942C27 27.8502 30.8502 24 35.5942 24H84.7038C89.4478 24 93.298 27.8502 93.298 32.5942V79.4251C93.2974 80.9656 92.8827 82.4777 92.0974 83.803C91.312 85.1283 90.1849 86.2182 88.8339 86.9585L63.5867 100.793C62.2926 101.503 60.8375 101.868 59.3615 101.852C57.8855 101.837 56.4383 101.442 55.1595 100.704L31.302 86.9389C29.9943 86.185 28.9082 85.1 28.153 83.7931C27.3978 82.4861 27.0001 81.0033 27 79.4939V32.5942ZM45.4161 44.8716C45.4161 43.8947 45.8042 42.9579 46.4949 42.2672C47.1856 41.5764 48.1225 41.1884 49.0993 41.1884H71.7634C72.7403 41.1884 73.6771 41.5764 74.3679 42.2672C75.0586 42.9579 75.4466 43.8947 75.4466 44.8716C75.4466 45.8484 75.0586 46.7853 74.3679 47.476C73.6771 48.1668 72.7403 48.5548 71.7634 48.5548H52.7826V56.9624H71.7634C72.7403 56.9624 73.6771 57.3504 74.3679 58.0412C75.0586 58.7319 75.4466 59.6687 75.4466 60.6456V74.8088C75.4471 75.4927 75.2571 76.1632 74.898 76.7452C74.5389 77.3272 74.0249 77.7977 73.4135 78.1041L62.079 83.7713C61.5681 84.0264 61.0049 84.1592 60.4338 84.1592C59.8628 84.1592 59.2996 84.0264 58.7887 83.7713L47.4542 78.1041C46.8426 77.7987 46.328 77.3293 45.9681 76.7482C45.6082 76.1671 45.417 75.4973 45.4161 74.8137V71.9752C45.4161 70.9983 45.8042 70.0615 46.4949 69.3708C47.1856 68.68 48.1225 68.292 49.0993 68.292C50.0762 68.292 51.013 68.68 51.7038 69.3708C52.3945 70.0615 52.7826 70.9983 52.7826 71.9752V72.535L60.4338 76.3607L68.0802 72.5301V64.3288H49.0993C48.1225 64.3288 47.1856 63.9408 46.4949 63.25C45.8042 62.5593 45.4161 61.6224 45.4161 60.6456V44.8716Z" fill="#F8F8F8"/>
</svg>
