<svg width="116" height="122" viewBox="0 0 116 122" fill="none" xmlns="http://www.w3.org/2000/svg">
<rect width="116" height="122" fill="#181818"/>
<path d="M40 46H52V78L44 74M76 46H66C65.4696 46 64.9609 46.2107 64.5858 46.5858C64.2107 46.9609 64 47.4696 64 48V60C64 60.5304 64.2107 61.0391 64.5858 61.4142C64.9609 61.7893 65.4696 62 66 62H71.692C71.9783 62 72.2612 62.0615 72.5217 62.1803C72.7821 62.2991 73.0141 62.4725 73.2018 62.6886C73.3895 62.9048 73.5286 63.1587 73.6097 63.4332C73.6908 63.7078 73.7121 63.9965 73.672 64.28L72 76L64 78M90 30L82 88L58 96L34 88L26 30H90Z" stroke="#F8F8F8" stroke-width="8" stroke-linecap="round" stroke-linejoin="round"/>
</svg>
