<svg width="116" height="122" viewBox="0 0 116 122" fill="none" xmlns="http://www.w3.org/2000/svg">
<rect width="116" height="122" fill="#181818"/>
<path d="M43.3 64.05V81.8H36.2V39.2H48.625C50.2567 39.2 51.8724 39.5214 53.3798 40.1458C54.8873 40.7702 56.257 41.6854 57.4108 42.8392C58.5646 43.993 59.4798 45.3627 60.1042 46.8702C60.7286 48.3776 61.05 49.9933 61.05 51.625C61.05 53.2567 60.7286 54.8724 60.1042 56.3798C59.4798 57.8873 58.5646 59.257 57.4108 60.4108C56.257 61.5646 54.8873 62.4798 53.3798 63.1042C51.8724 63.7286 50.2567 64.05 48.625 64.05H43.3ZM43.3 46.3V56.95H48.625C50.0373 56.95 51.3917 56.389 52.3903 55.3903C53.389 54.3917 53.95 53.0373 53.95 51.625C53.95 50.2127 53.389 48.8583 52.3903 47.8597C51.3917 46.861 50.0373 46.3 48.625 46.3H43.3ZM62.825 62.1082C62.825 59.7986 63.7425 57.5837 65.3756 55.9506C67.0087 54.3175 69.2236 53.4 71.5331 53.4H78.8V60.5H71.5331C71.1509 60.4996 70.781 60.6353 70.4898 60.8829C70.1986 61.1305 70.005 61.4737 69.9439 61.8511C69.8828 62.2284 69.9581 62.6151 70.1563 62.942C70.3545 63.2688 70.6627 63.5144 71.0255 63.6347L74.6217 64.831C76.5831 65.4851 78.2477 66.8158 79.3178 68.585C80.3879 70.3542 80.7936 72.4464 80.4622 74.4873C80.1309 76.5282 79.0842 78.3846 77.5094 79.7244C75.9346 81.0642 73.9345 81.7999 71.8669 81.8H62.825V74.7H71.8669C72.2491 74.7004 72.619 74.5647 72.9102 74.3171C73.2014 74.0695 73.395 73.7263 73.4561 73.3489C73.5172 72.9716 73.4419 72.5849 73.2437 72.258C73.0455 71.9312 72.7373 71.6856 72.3745 71.5653L68.7784 70.369C67.0447 69.7909 65.5369 68.682 64.4684 67.1994C63.4 65.7168 62.825 63.9356 62.825 62.1082Z" fill="#F8F8F8"/>
<path d="M93 25H22V96H93V25ZM29.1 88.9V32.1H85.9V88.9H29.1Z" fill="#F8F8F8"/>
</svg>
