<svg width="116" height="122" viewBox="0 0 116 122" fill="none" xmlns="http://www.w3.org/2000/svg">
<rect width="116" height="122" fill="#181818"/>
<path d="M57.5 53.08C52.9285 53.08 49.2056 56.8029 49.2056 61.3744C49.2056 65.946 52.9285 69.6689 57.5 69.6689C62.0715 69.6689 65.7944 65.946 65.7944 61.3744C65.7944 56.8029 62.0715 53.08 57.5 53.08ZM34.2791 77.8587L32.4481 77.4053C18.8236 73.9527 11 68.1111 11 61.3599C11 54.6087 18.8265 48.7671 32.4481 45.3145L34.2791 44.8611L34.7935 46.6775C36.1756 51.4351 37.9426 56.0723 40.077 60.5432L40.4694 61.3599L40.077 62.1911C37.9382 66.6601 36.171 71.2977 34.7935 76.0568L34.2791 77.8587ZM31.6024 49.5518C21.2474 52.4581 14.8915 56.9221 14.8915 61.3599C14.8915 65.7977 21.2503 70.2443 31.6024 73.168C32.8714 69.136 34.4034 65.1915 36.1885 61.3599C34.4009 57.5294 32.8689 53.5847 31.6024 49.5518ZM80.7209 77.8587L80.2065 76.0423C78.8268 71.2886 77.0597 66.656 74.923 62.1911L74.5306 61.3599L74.923 60.5287C77.0619 56.0597 78.829 51.4221 80.2065 46.663L80.7209 44.8611L82.5519 45.3145C96.1764 48.7671 104 54.6087 104 61.3599C104 68.1111 96.1735 73.9527 82.5519 77.4053L80.7209 77.8587ZM78.8115 61.3599C80.6025 65.189 82.1347 69.1338 83.3976 73.168C93.7671 70.2472 100.109 65.7977 100.109 61.3599C100.109 56.9221 93.7497 52.4755 83.3976 49.5518C82.1256 53.5828 80.5937 57.5271 78.8115 61.3599ZM31.5704 49.5373L31.056 47.7209C27.2256 34.2184 28.391 24.5319 34.25 21.1548C40.0015 17.8388 49.2201 21.7593 58.8921 31.69L60.2086 33.0385L58.8921 34.387C55.4574 37.9606 52.3189 41.8076 49.5078 45.8899L48.9789 46.631L48.0692 46.7066C43.1242 47.0969 38.2189 47.8871 33.4014 49.0694L31.5704 49.5373ZM38.9262 23.8518C37.8828 23.8518 36.9586 24.064 36.1856 24.5174C32.3406 26.7436 31.6605 34.4626 34.3081 44.8756C38.4392 43.9516 42.6264 43.2992 46.8428 42.9226C49.2702 39.4653 51.9246 36.1731 54.7885 33.0676C48.7493 27.1795 43.0269 23.8518 38.9262 23.8518ZM76.0884 102.742C76.0738 102.742 76.0738 102.742 76.0884 102.742C70.5636 102.742 63.4636 98.5948 56.1079 91.0269L54.7914 89.6784L56.1079 88.3299C59.5426 84.7563 62.6811 80.9093 65.4922 76.827L66.0066 76.0859L66.9162 75.9958C71.8676 75.6186 76.7789 74.8282 81.5986 73.633L83.4296 73.1796L83.944 74.996C87.7744 88.4985 86.609 98.1705 80.75 101.545C79.3335 102.359 77.7219 102.775 76.0884 102.742ZM60.2086 89.6493C66.2478 95.5374 71.9702 98.868 76.0709 98.868H76.0855C77.1143 98.868 78.0385 98.6413 78.8115 98.2024C82.6565 95.9762 83.354 88.2572 80.689 77.8442C76.5587 78.7692 72.3711 79.4168 68.1543 79.7826C65.727 83.2446 63.0726 86.5388 60.2086 89.6493ZM83.4296 49.5373L81.5986 49.0694C76.7754 47.891 71.8656 47.1009 66.9162 46.7066L66.0066 46.631L65.4922 45.8899C62.6811 41.8076 59.5426 37.9606 56.1079 34.387L54.7914 33.0385L56.1079 31.69C65.7799 21.7593 74.9985 17.8388 80.75 21.1548C86.609 24.529 87.7744 34.2184 83.944 47.7209L83.4296 49.5373ZM68.1572 42.9226C72.3737 43.2981 76.561 43.9506 80.6919 44.8756C83.3569 34.4626 82.6594 26.7406 78.8144 24.5174C74.984 22.3086 67.7794 25.6973 60.2115 33.0705C63.0676 36.1826 65.7216 39.4744 68.1572 42.9256V42.9226ZM38.9262 102.742C37.2899 102.771 35.6712 102.364 34.25 101.548C28.391 98.1734 27.2256 88.4985 31.056 74.9989L31.5704 73.1825L33.4014 73.6359C37.8828 74.7722 42.8176 75.5569 48.0692 75.9987L48.9789 76.0888L49.4933 76.8299C52.3044 80.9122 55.4428 84.7592 58.8776 88.3328L60.1941 89.6813L58.8776 91.0298C51.5364 98.5977 44.4364 102.745 38.9262 102.745V102.742ZM34.311 77.8442C31.646 88.2572 32.3435 95.9792 36.1885 98.2024C40.0189 100.382 47.209 97.0225 54.7914 89.6493C51.9274 86.5388 49.273 83.2417 46.8457 79.7797C42.6288 79.415 38.4411 78.7703 34.311 77.8442ZM57.5 80.2796C54.306 80.2796 51.0365 80.143 47.7524 79.8698L46.8428 79.7942L46.3138 79.0386C44.4588 76.3732 42.7164 73.6312 41.0913 70.8197C39.4628 68.0082 37.9531 65.1294 36.5663 62.1911L36.1739 61.3599L36.5663 60.5287C39.3447 54.6534 42.6051 49.0183 46.3138 43.6812L46.8428 42.9256L47.7524 42.85C54.2393 42.3036 60.7607 42.3036 67.2476 42.85L68.1572 42.9256L68.6862 43.6812C72.3997 49.0152 75.6603 54.6507 78.4337 60.5287L78.8261 61.3599L78.4337 62.1911C75.6659 68.072 72.405 73.708 68.6862 79.0386L68.1572 79.7942L67.2476 79.8698C64.0054 80.1411 60.7535 80.2778 57.5 80.2796ZM48.9934 76.0713C54.7158 76.5102 60.2842 76.5102 66.0211 76.0713C69.2206 71.3862 72.0642 66.4676 74.5277 61.357C72.0746 56.2379 69.2255 51.3182 66.0066 46.6426C60.344 46.2038 54.656 46.2038 48.9934 46.6426C45.7722 51.3168 42.923 56.2367 40.4723 61.357C42.9366 66.4702 45.7851 71.389 48.9934 76.0713Z" fill="#F8F8F8"/>
</svg>
