<svg width="116" height="122" viewBox="0 0 116 122" fill="none" xmlns="http://www.w3.org/2000/svg">
<rect width="116" height="122" fill="#181818"/>
<path d="M88.1326 65.6404L88.4736 65.6352C90.6282 65.6352 92.6665 66.1364 94.4749 67.0303L94.3948 66.9941C96.0036 67.7712 97.3774 68.9613 98.3758 70.4429L98.3991 70.4791C99.2681 71.7543 99.698 73.2779 99.6236 74.8192V74.8037C99.5871 75.5159 99.4088 76.2136 99.0992 76.8559C98.7895 77.4983 98.3548 78.0723 97.8204 78.5445L97.8152 78.5497C97.2385 79.116 96.5469 79.5521 95.7873 79.8285L95.7485 79.8414C95.3179 79.9275 95.0811 79.8629 95.0381 79.6476C94.995 79.4323 95.1888 79.1955 95.6193 78.9372C96.787 78.2293 97.6318 77.0875 97.9392 75.7415L97.947 75.7079C98.0139 74.8108 97.8353 73.9123 97.4303 73.109L97.4432 73.1374C96.9011 71.9951 96.0625 71.0191 95.0148 70.3112L94.989 70.2957C93.37 69.2625 91.5222 68.6425 89.6078 68.4899L89.5664 68.4873C86.8247 68.0973 84.0287 68.4221 81.4494 69.4302L81.5579 69.3915C81.9325 70.2673 82.1676 71.2826 82.2011 72.3469V72.3598C82.1824 73.3968 81.9012 74.4122 81.384 75.3111C80.8667 76.2101 80.1302 76.9634 79.2431 77.5008L79.2147 77.5163C78.4139 78.0847 77.4993 78.5832 76.5254 78.9708L76.435 79.0018C75.7285 79.342 74.947 79.4967 74.1642 79.4513H74.1771C72.5427 79.1085 72.1551 77.6877 73.0146 75.1887C73.3891 74.101 73.9136 73.1581 74.5775 72.3288L74.562 72.3469C75.412 71.236 76.3446 70.2621 77.3753 69.3993L77.4038 69.376L77.1506 68.9988C76.6489 68.1319 76.2286 67.2204 75.895 66.2759L75.8589 66.1571C75.6005 65.2959 75.3853 64.4787 75.213 63.7054L75.0839 62.8012L73.7922 65.2529C72.6727 67.3196 71.5963 69.1271 70.5629 70.6754L70.1754 71.3213C70.6094 72.3753 70.9297 73.5973 71.0744 74.8735L71.0796 74.9381C71.1511 75.9342 70.9648 76.932 70.5385 77.8352C70.1122 78.7384 69.4605 79.5165 68.646 80.0945L68.6279 80.1075C67.8447 80.5856 67.0338 81.0169 66.1995 81.3992L66.0445 81.4637C65.0691 81.881 64.0273 82.1215 62.9677 82.1742H62.9444C62.2243 82.2241 61.5035 82.0871 60.8519 81.7763L60.8777 81.7867C60.6218 81.5691 60.4452 81.2729 60.3755 80.9442C60.3059 80.6156 60.3471 80.2732 60.4928 79.9705L60.4876 79.9809C61.521 78.5316 62.5388 77.2709 63.6213 76.067L63.5877 76.1058L66.4295 72.4916L65.9154 71.3291C65.4691 70.4997 65.0924 69.6347 64.789 68.7431L64.7528 68.6191C64.4945 67.7579 64.2792 66.9407 64.107 66.1674L63.9778 65.2632L62.6861 68.3633C61.6545 70.7728 60.7072 72.8386 59.8444 74.5609C58.5578 77.1443 57.4814 79.1249 56.6151 80.5027L56.3568 80.8902C55.3251 82.5247 54.3348 83.3419 53.3858 83.3419C52.4369 83.3419 51.7936 82.7391 51.456 81.5335C51.193 80.5678 51.0609 79.5712 51.0634 78.5703L51.066 78.2913V78.3042L51.3243 76.4959V76.625C50.6354 78.2595 49.9465 79.7656 49.2576 81.1434C48.8381 81.973 48.3517 82.767 47.8031 83.5176L47.8367 83.4685C47.3045 84.0265 46.5553 84.3727 45.7261 84.3727H45.7054C45.6511 84.3778 45.5891 84.3778 45.5271 84.3778C44.8998 84.3785 44.2947 84.1455 43.8298 83.7242L43.8324 83.7268C42.9159 82.7863 42.2559 81.6264 41.9155 80.358L41.9026 80.3038C41.395 78.863 41.173 77.337 41.249 75.8113V75.8371C41.4531 73.7807 41.8639 71.8974 42.4658 70.1019L42.4115 70.2854L37.764 72.9979V73.1271C38.6117 74.9085 38.9676 76.8841 38.7948 78.8493L38.7974 78.808C38.6723 81.3627 37.8572 83.8357 36.4387 85.964L36.4723 85.9124C35.054 88.1814 32.9647 89.9528 30.4943 90.981L30.409 91.012C28.924 91.6677 27.3177 92.0039 25.6943 91.9989C24.6145 91.9989 23.5656 91.8542 22.5736 91.5804L22.6563 91.5984C21.8546 91.3322 21.1741 90.7891 20.7368 90.0665L20.729 90.051C20.1031 89.1371 19.7428 88.0676 19.6879 86.9612V86.9457C19.5245 85.3778 19.8009 83.7954 20.4862 82.3757L20.4629 82.4274C21.9096 79.9421 23.9696 77.8696 26.4461 76.408L26.5236 76.3667C28.3715 75.0962 30.3119 73.9659 32.3285 72.985L32.6024 72.8636L33.2482 72.4761C32.4732 71.8733 31.0523 70.8399 28.9856 69.376C26.3792 67.6399 23.8982 65.7226 21.5609 63.6383L21.6255 63.6951C19.4105 61.7975 17.839 59.2592 17.1278 56.4306L17.1071 56.3324C16.8099 54.4999 17.1355 52.6207 18.032 50.9951L18.0113 51.039C19.3947 48.0307 21.4108 45.3564 23.9221 43.1984L23.9531 43.1725C26.6408 40.6356 29.6473 38.4593 32.8969 36.6985L33.1216 36.5874C36.2764 34.7884 39.5871 33.2779 43.0135 32.0742L43.4527 31.9399C47.0136 30.6634 50.7681 30.0106 54.551 30.0101H54.5561C57.8576 29.9059 61.1346 30.6101 64.1018 32.0613L63.983 32.0071C66.308 33.0663 68.0492 35.0606 68.7468 37.4994L68.7623 37.5614C69.3681 40.019 69.154 42.6072 68.1526 44.9318L68.181 44.8569C67.1305 47.4368 65.5487 49.7667 63.5386 51.6952L63.5309 51.7029C61.5238 53.6929 59.1355 55.257 56.5092 56.3014L56.3671 56.3505C53.3936 57.6057 50.2151 58.3053 46.9893 58.4146L46.9403 58.4172C44.9074 58.636 42.8514 58.4516 40.8899 57.8747L41.001 57.9031C39.807 57.5288 38.7038 56.9103 37.7614 56.087L37.7718 56.0947C37.1335 55.5766 36.6108 54.9307 36.2372 54.1985L36.2217 54.1649C35.9634 53.476 35.9418 53.067 36.1571 52.9378C36.3724 52.8086 36.5231 52.7871 36.6092 52.8732L37.2551 53.5191C37.9758 54.1882 38.8361 54.7152 39.7868 55.051L39.8385 55.0665C41.1457 55.5212 42.6544 55.7847 44.2225 55.7847C44.7263 55.7847 45.2223 55.7589 45.7106 55.7046L45.6511 55.7098C49.652 55.2523 53.4892 53.8602 56.8528 51.6461L56.7572 51.7055C59.4591 50.1096 61.7095 47.8512 63.2958 45.1437L63.3423 45.0558C64.1199 43.914 64.5849 42.5034 64.5849 40.9844C64.5849 40.0518 64.4092 39.1579 64.0889 38.3364L64.107 38.3855C63.6282 37.6215 62.9925 36.968 62.242 36.4683C61.4916 35.9686 60.6435 35.6341 59.7539 35.4869L59.7178 35.4817C56.8786 34.8119 53.9296 34.7529 51.066 35.3086L51.1951 35.288C47.0687 36.0135 43.0749 37.3556 39.3476 39.269L39.5827 39.1579C28.9942 44.497 23.5269 49.9643 23.1807 55.56V55.6865C23.1807 57.9418 24.0668 59.9905 25.5109 61.5044L25.5083 61.5018C27.1366 63.3155 28.9653 64.9388 30.9593 66.3405L31.0601 66.4077C32.7995 67.7021 34.4386 69.1262 35.9634 70.6677L35.966 70.6729L36.2243 70.9312L44.4912 66.4128C45.409 65.0766 46.5524 63.9105 47.8703 62.9666L47.9116 62.9382C48.945 62.0701 50.2573 61.5044 51.6963 61.3907L51.7196 61.3881C51.7712 61.3829 51.8306 61.3829 51.8926 61.3829C52.8563 61.3829 53.6829 61.9642 54.0395 62.7961L54.0446 62.8116C54.4232 63.6713 54.5564 64.6191 54.4295 65.55L54.4321 65.5241L54.1815 66.7978L54.569 66.5394C54.7982 66.3654 55.0699 66.256 55.3557 66.2229C55.6416 66.1897 55.9311 66.2339 56.194 66.3508L56.1837 66.3457C56.4725 66.4196 56.7207 66.6039 56.8748 66.8591C57.0289 67.1142 57.0767 67.4197 57.0078 67.7097L57.0104 67.702L56.6229 69.1228C55.8478 72.2212 55.332 74.4593 55.0754 75.8371C54.9094 76.4291 54.8447 77.0449 54.8842 77.6584V77.6429C54.9273 78.1596 54.9919 78.4179 55.078 78.4179C55.1641 78.4179 55.3355 78.1596 55.5921 77.6429L55.9796 76.7387C56.0657 76.7387 56.0657 76.7818 55.9796 76.8679L57.4005 73.897C60.7589 66.4946 62.5664 62.3612 62.823 61.4966L63.598 59.045C63.6842 58.8727 64.0286 58.7014 64.6314 58.5309C65.3527 58.3409 66.0972 58.2539 66.8428 58.2725H66.835C68.0406 58.2725 68.6434 58.5739 68.6434 59.1767L68.5143 59.8226C68.188 60.7405 67.9214 61.6785 67.716 62.6307L67.6876 62.7935C67.5576 63.6684 67.5812 64.5592 67.7573 65.426L67.7496 65.3769L67.8787 65.891C68.1423 66.9683 68.5427 67.9138 69.0671 68.7766L69.0413 68.7327C70.0729 67.0122 71.0632 65.2477 72.0122 63.4393C72.7614 62.1916 73.4589 60.7448 74.0195 59.231L74.0789 59.0501C74.2727 58.0762 74.4948 57.2547 74.7661 56.4538L74.7248 56.5985C74.8109 56.3401 75.1786 56.1464 75.8279 56.0172C76.4427 55.8932 77.148 55.8235 77.8688 55.8235H77.9618H77.9566C79.1622 55.8235 79.8055 56.1249 79.8864 56.7276L79.6281 57.2417C79.3206 58.1098 79.052 59.1535 78.8711 60.2256L78.8556 60.3418C78.7747 61.224 78.8217 62.1133 78.9951 62.9821L78.9848 62.9227V63.4367C79.2819 64.5631 79.7237 65.5526 80.3023 66.449L80.2765 66.4077L80.664 67.3119C82.9629 66.1987 85.4854 65.6244 88.0396 65.6326H88.1404H88.1352L88.1326 65.6404ZM32.747 84.3778C34.6123 82.4548 35.654 79.8802 35.6508 77.2011C35.6515 76.1525 35.4929 75.1098 35.1806 74.1088L35.2013 74.1811L33.1345 75.4728C31.0265 76.6741 29.2026 78.0149 27.5518 79.5391L27.5725 79.521C26.3037 80.6847 25.3909 82.1842 24.94 83.8456L24.9245 83.9102C24.537 85.5033 24.7307 86.5367 25.5057 87.0103C25.9785 87.2273 26.5339 87.3539 27.1152 87.3539C27.7507 87.3539 28.3527 87.2041 28.8823 86.9354L28.859 86.9457C30.339 86.4143 31.6666 85.5292 32.7264 84.3675L32.7341 84.3597L32.747 84.3778ZM50.0481 72.4838C50.4787 71.3644 50.9523 70.0296 51.469 68.4796C52.1579 66.4128 52.3947 65.2081 52.1794 64.8654C51.9641 64.5226 51.5551 64.4796 50.9523 64.7362C50.2562 65.0704 49.6417 65.5527 49.1516 66.1493L49.1439 66.1597C48.5874 66.8667 48.0848 67.6146 47.6404 68.3969L47.5939 68.4847C47.0473 69.3868 46.6201 70.3559 46.3228 71.3678L46.2996 71.4556C45.6977 73.1184 45.4351 74.8849 45.5271 76.6509V76.6199C45.6132 78.3404 45.8888 79.2661 46.3538 79.397C46.8188 79.5279 47.357 78.9036 47.9684 77.5241C48.56 76.4571 49.0871 75.2171 49.4797 73.9176L49.5159 73.7781C49.7725 73.1684 49.9482 72.737 50.0429 72.4838H50.0481ZM64.3756 79.3299C65.2658 78.9361 66.0344 78.3114 66.6017 77.5206C67.1691 76.7297 67.5145 75.8015 67.6023 74.8321L67.6049 74.8115V74.6823L66.184 76.4907L63.6032 79.3324C63.5834 79.3477 63.5673 79.3672 63.5561 79.3896C63.5449 79.412 63.5389 79.4366 63.5386 79.4616C63.5386 79.5133 63.5645 79.5598 63.6006 79.5908C63.6833 79.6752 63.9416 79.5891 64.3756 79.3324V79.3299ZM75.4817 76.8756C76.4466 76.6045 77.2968 76.0259 77.9029 75.2276C78.509 74.4294 78.8381 73.4551 78.8401 72.4528V72.3521V72.3572C78.8143 71.8406 78.7213 71.3549 78.5689 70.895L78.5792 70.9338C77.5743 71.8276 76.7502 72.8972 76.1534 74.1036L76.125 74.163C75.3482 75.7114 75.1312 76.6138 75.474 76.8705L75.4817 76.8756Z" fill="#F8F8F8"/>
</svg>
