<svg width="467" height="170" viewBox="0 0 467 170" fill="none" xmlns="http://www.w3.org/2000/svg">
<path d="M0 0H467V170H0V0Z" fill="#141414"/>
<path d="M132.848 86.7875C133.747 86.7875 134.538 86.6683 135.22 86.43C135.913 86.1917 136.493 85.8612 136.959 85.4387C137.435 85.0054 137.793 84.4908 138.031 83.895C138.27 83.2992 138.389 82.6437 138.389 81.9287C138.389 80.4446 137.928 79.2854 137.008 78.4512C136.098 77.6171 134.711 77.2 132.848 77.2H129.11V86.7875H132.848ZM132.848 74.7137C134.321 74.7137 135.599 74.8871 136.683 75.2337C137.777 75.5696 138.681 76.0517 139.396 76.68C140.111 77.3083 140.642 78.0667 140.989 78.955C141.346 79.8433 141.525 80.8346 141.525 81.9287C141.525 83.0121 141.335 84.0033 140.956 84.9025C140.577 85.8017 140.019 86.5762 139.283 87.2262C138.557 87.8762 137.652 88.3854 136.569 88.7537C135.496 89.1112 134.256 89.29 132.848 89.29H129.11V98H125.974V74.7137H132.848ZM153.224 90.59C151.891 90.6333 150.754 90.7417 149.811 90.915C148.88 91.0775 148.116 91.2942 147.52 91.565C146.935 91.8358 146.507 92.1554 146.236 92.5237C145.976 92.8921 145.846 93.3037 145.846 93.7587C145.846 94.1921 145.917 94.5658 146.057 94.88C146.198 95.1942 146.388 95.4542 146.626 95.66C146.875 95.855 147.162 96.0012 147.487 96.0987C147.823 96.1854 148.181 96.2287 148.56 96.2287C149.069 96.2287 149.535 96.18 149.957 96.0825C150.38 95.9742 150.775 95.8225 151.144 95.6275C151.523 95.4325 151.88 95.1996 152.216 94.9287C152.563 94.6579 152.899 94.3492 153.224 94.0025V90.59ZM143.88 83.8625C144.79 82.985 145.77 82.3296 146.821 81.8962C147.872 81.4629 149.037 81.2462 150.315 81.2462C151.236 81.2462 152.054 81.3979 152.769 81.7012C153.484 82.0046 154.085 82.4271 154.572 82.9687C155.06 83.5104 155.428 84.1658 155.677 84.935C155.927 85.7042 156.051 86.5492 156.051 87.47V98H154.767C154.486 98 154.269 97.9567 154.117 97.87C153.966 97.7725 153.847 97.5883 153.76 97.3175L153.435 95.7575C153.002 96.1583 152.579 96.5158 152.167 96.83C151.756 97.1333 151.322 97.3933 150.867 97.61C150.412 97.8158 149.925 97.9729 149.405 98.0813C148.896 98.2004 148.327 98.26 147.699 98.26C147.06 98.26 146.458 98.1733 145.895 98C145.332 97.8158 144.839 97.545 144.416 97.1875C144.005 96.83 143.674 96.3804 143.425 95.8387C143.187 95.2862 143.067 94.6362 143.067 93.8887C143.067 93.2387 143.246 92.6158 143.604 92.02C143.961 91.4133 144.541 90.8771 145.342 90.4112C146.144 89.9454 147.19 89.5662 148.479 89.2737C149.768 88.9704 151.35 88.7971 153.224 88.7537V87.47C153.224 86.1917 152.947 85.2275 152.395 84.5775C151.842 83.9167 151.035 83.5862 149.974 83.5862C149.259 83.5862 148.657 83.6783 148.17 83.8625C147.693 84.0358 147.276 84.2362 146.919 84.4637C146.572 84.6804 146.269 84.8808 146.009 85.065C145.76 85.2383 145.51 85.325 145.261 85.325C145.066 85.325 144.898 85.2762 144.757 85.1787C144.617 85.0704 144.497 84.9404 144.4 84.7887L143.88 83.8625ZM173.994 81.5387V98H172.271C171.859 98 171.599 97.7996 171.491 97.3987L171.264 95.6275C170.549 96.4183 169.747 97.0575 168.859 97.545C167.97 98.0217 166.952 98.26 165.804 98.26C164.904 98.26 164.108 98.1138 163.415 97.8212C162.732 97.5179 162.158 97.0954 161.692 96.5537C161.226 96.0121 160.874 95.3567 160.636 94.5875C160.409 93.8183 160.295 92.9679 160.295 92.0362V81.5387H163.187V92.0362C163.187 93.2821 163.469 94.2462 164.032 94.9287C164.606 95.6112 165.479 95.9525 166.649 95.9525C167.504 95.9525 168.301 95.7521 169.037 95.3512C169.785 94.9396 170.473 94.3762 171.101 93.6612V81.5387H173.994ZM181.57 74.0637V98H178.677V74.0637H181.57ZM193.199 81.2787C194.402 81.2787 195.485 81.4792 196.449 81.88C197.413 82.2808 198.237 82.8496 198.919 83.5862C199.602 84.3229 200.122 85.2167 200.479 86.2675C200.848 87.3075 201.032 88.4721 201.032 89.7612C201.032 91.0612 200.848 92.2312 200.479 93.2712C200.122 94.3112 199.602 95.1996 198.919 95.9362C198.237 96.6729 197.413 97.2417 196.449 97.6425C195.485 98.0325 194.402 98.2275 193.199 98.2275C191.986 98.2275 190.892 98.0325 189.917 97.6425C188.953 97.2417 188.129 96.6729 187.447 95.9362C186.764 95.1996 186.239 94.3112 185.87 93.2712C185.513 92.2312 185.334 91.0612 185.334 89.7612C185.334 88.4721 185.513 87.3075 185.87 86.2675C186.239 85.2167 186.764 84.3229 187.447 83.5862C188.129 82.8496 188.953 82.2808 189.917 81.88C190.892 81.4792 191.986 81.2787 193.199 81.2787ZM193.199 95.9688C194.824 95.9688 196.038 95.4271 196.839 94.3437C197.641 93.2496 198.042 91.7275 198.042 89.7775C198.042 87.8167 197.641 86.2892 196.839 85.195C196.038 84.1008 194.824 83.5537 193.199 83.5537C192.376 83.5537 191.655 83.6946 191.038 83.9762C190.431 84.2579 189.922 84.6642 189.51 85.195C189.11 85.7258 188.806 86.3812 188.6 87.1612C188.405 87.9304 188.308 88.8025 188.308 89.7775C188.308 91.7275 188.709 93.2496 189.51 94.3437C190.323 95.4271 191.553 95.9688 193.199 95.9688ZM206.001 73.1537C206.456 73.9229 206.765 74.7354 206.927 75.5912C207.09 76.4471 207.106 77.2921 206.976 78.1262C206.846 78.9604 206.575 79.7621 206.163 80.5312C205.752 81.3004 205.205 81.9829 204.522 82.5787L203.645 82.01C203.482 81.9125 203.406 81.7879 203.417 81.6362C203.439 81.4737 203.493 81.3437 203.58 81.2462C203.861 80.8996 204.1 80.4825 204.295 79.995C204.501 79.4967 204.631 78.9658 204.685 78.4025C204.75 77.8283 204.723 77.2379 204.603 76.6312C204.495 76.0246 204.273 75.4396 203.937 74.8762C203.796 74.6487 203.753 74.4483 203.807 74.275C203.872 74.0908 204.008 73.9554 204.213 73.8687L206.001 73.1537ZM219.81 84.2525C219.68 84.4908 219.48 84.61 219.209 84.61C219.047 84.61 218.862 84.5504 218.657 84.4312C218.451 84.3121 218.196 84.1821 217.893 84.0412C217.6 83.8896 217.248 83.7542 216.837 83.635C216.425 83.505 215.937 83.44 215.374 83.44C214.887 83.44 214.448 83.505 214.058 83.635C213.668 83.7542 213.332 83.9221 213.05 84.1387C212.78 84.3554 212.568 84.61 212.417 84.9025C212.276 85.1842 212.205 85.4929 212.205 85.8287C212.205 86.2512 212.325 86.6033 212.563 86.885C212.812 87.1667 213.137 87.4104 213.538 87.6162C213.939 87.8221 214.394 88.0062 214.903 88.1687C215.412 88.3204 215.932 88.4883 216.463 88.6725C217.005 88.8458 217.53 89.0408 218.039 89.2575C218.548 89.4742 219.003 89.745 219.404 90.07C219.805 90.395 220.125 90.7958 220.363 91.2725C220.612 91.7383 220.737 92.3017 220.737 92.9625C220.737 93.7208 220.601 94.425 220.33 95.075C220.06 95.7142 219.659 96.2721 219.128 96.7487C218.597 97.2146 217.947 97.5829 217.178 97.8537C216.409 98.1246 215.52 98.26 214.513 98.26C213.365 98.26 212.325 98.0758 211.393 97.7075C210.461 97.3283 209.67 96.8462 209.02 96.2612L209.703 95.1562C209.79 95.0154 209.892 94.9071 210.012 94.8312C210.131 94.7554 210.282 94.7175 210.467 94.7175C210.662 94.7175 210.867 94.7933 211.084 94.945C211.301 95.0967 211.561 95.2646 211.864 95.4487C212.178 95.6329 212.557 95.8008 213.002 95.9525C213.446 96.1042 213.998 96.18 214.659 96.18C215.222 96.18 215.715 96.1096 216.138 95.9688C216.56 95.8171 216.912 95.6167 217.194 95.3675C217.476 95.1183 217.682 94.8312 217.812 94.5062C217.952 94.1812 218.023 93.8346 218.023 93.4662C218.023 93.0112 217.898 92.6375 217.649 92.345C217.411 92.0417 217.091 91.7871 216.69 91.5812C216.29 91.3646 215.829 91.1804 215.309 91.0287C214.8 90.8662 214.275 90.6983 213.733 90.525C213.202 90.3517 212.677 90.1567 212.157 89.94C211.647 89.7125 211.192 89.4308 210.792 89.095C210.391 88.7592 210.066 88.3475 209.817 87.86C209.578 87.3617 209.459 86.7604 209.459 86.0562C209.459 85.4279 209.589 84.8267 209.849 84.2525C210.109 83.6675 210.488 83.1583 210.987 82.725C211.485 82.2808 212.097 81.9287 212.823 81.6688C213.549 81.4087 214.377 81.2787 215.309 81.2787C216.392 81.2787 217.362 81.4521 218.218 81.7987C219.085 82.1346 219.832 82.6004 220.46 83.1962L219.81 84.2525Z" fill="white"/>
<path d="M247.646 95.4325L247.63 98H233.281V74.7137H247.63V77.2812H236.433V85.0162H245.501V87.4862H236.433V95.4325H247.646ZM264.699 81.5387L257.988 98H255.388L248.676 81.5387H251.033C251.271 81.5387 251.466 81.5983 251.618 81.7175C251.769 81.8367 251.872 81.9775 251.926 82.14L256.103 92.735C256.233 93.1358 256.346 93.5258 256.444 93.905C256.541 94.2842 256.634 94.6633 256.72 95.0425C256.807 94.6633 256.899 94.2842 256.996 93.905C257.094 93.5258 257.213 93.1358 257.354 92.735L261.579 82.14C261.644 81.9667 261.752 81.8258 261.904 81.7175C262.056 81.5983 262.234 81.5387 262.44 81.5387H264.699ZM277.925 87.9737C277.925 87.3021 277.827 86.69 277.632 86.1375C277.448 85.5742 277.172 85.0921 276.804 84.6912C276.446 84.2796 276.007 83.9654 275.487 83.7487C274.967 83.5212 274.377 83.4075 273.716 83.4075C272.33 83.4075 271.23 83.8137 270.417 84.6262C269.616 85.4279 269.117 86.5437 268.922 87.9737H277.925ZM280.265 95.6925C279.907 96.1258 279.48 96.505 278.981 96.83C278.483 97.1442 277.947 97.4042 277.372 97.61C276.809 97.8158 276.224 97.9675 275.617 98.065C275.011 98.1733 274.41 98.2275 273.814 98.2275C272.676 98.2275 271.625 98.0379 270.661 97.6587C269.708 97.2687 268.879 96.7054 268.175 95.9688C267.482 95.2212 266.94 94.3004 266.55 93.2062C266.16 92.1121 265.965 90.8554 265.965 89.4362C265.965 88.2879 266.138 87.2154 266.485 86.2187C266.842 85.2221 267.352 84.3608 268.012 83.635C268.673 82.8983 269.48 82.3242 270.434 81.9125C271.387 81.49 272.46 81.2787 273.651 81.2787C274.637 81.2787 275.547 81.4467 276.381 81.7825C277.226 82.1075 277.952 82.5842 278.559 83.2125C279.176 83.83 279.658 84.5992 280.005 85.52C280.352 86.43 280.525 87.47 280.525 88.64C280.525 89.095 280.476 89.3983 280.379 89.55C280.281 89.7017 280.097 89.7775 279.826 89.7775H268.825C268.857 90.8175 268.998 91.7221 269.247 92.4912C269.507 93.2604 269.865 93.905 270.32 94.425C270.775 94.9342 271.317 95.3187 271.945 95.5787C272.573 95.8279 273.277 95.9525 274.057 95.9525C274.783 95.9525 275.406 95.8712 275.926 95.7087C276.457 95.5354 276.912 95.3512 277.291 95.1562C277.67 94.9612 277.985 94.7825 278.234 94.62C278.494 94.4467 278.716 94.36 278.9 94.36C279.138 94.36 279.322 94.4521 279.452 94.6362L280.265 95.6925ZM286.808 83.9275C287.165 83.5267 287.545 83.1637 287.945 82.8387C288.346 82.5137 288.769 82.2375 289.213 82.01C289.668 81.7717 290.145 81.5929 290.643 81.4737C291.152 81.3437 291.699 81.2787 292.284 81.2787C293.183 81.2787 293.974 81.4304 294.657 81.7337C295.35 82.0262 295.924 82.4487 296.379 83.0012C296.845 83.5429 297.197 84.1983 297.435 84.9675C297.674 85.7367 297.793 86.5871 297.793 87.5187V98H294.884V87.5187C294.884 86.2729 294.597 85.3087 294.023 84.6262C293.46 83.9329 292.598 83.5862 291.439 83.5862C290.583 83.5862 289.782 83.7921 289.034 84.2037C288.297 84.6154 287.615 85.1733 286.987 85.8775V98H284.078V81.5387H285.817C286.228 81.5387 286.483 81.7392 286.58 82.14L286.808 83.9275ZM307.032 98.26C305.732 98.26 304.73 97.8971 304.026 97.1712C303.332 96.4454 302.986 95.4 302.986 94.035V83.96H301.003C300.83 83.96 300.684 83.9112 300.565 83.8137C300.445 83.7054 300.386 83.5429 300.386 83.3262V82.1725L303.083 81.8312L303.75 76.745C303.782 76.5825 303.852 76.4525 303.961 76.355C304.08 76.2467 304.232 76.1925 304.416 76.1925H305.878V81.8637H310.64V83.96H305.878V93.84C305.878 94.5333 306.046 95.0479 306.382 95.3837C306.718 95.7196 307.151 95.8875 307.682 95.8875C307.985 95.8875 308.245 95.8496 308.462 95.7737C308.69 95.6871 308.885 95.595 309.047 95.4975C309.21 95.4 309.345 95.3133 309.453 95.2375C309.572 95.1508 309.675 95.1075 309.762 95.1075C309.914 95.1075 310.049 95.1996 310.168 95.3837L311.013 96.765C310.515 97.2308 309.914 97.5992 309.21 97.87C308.505 98.13 307.78 98.26 307.032 98.26ZM320.47 81.2787C321.672 81.2787 322.756 81.4792 323.72 81.88C324.684 82.2808 325.507 82.8496 326.19 83.5862C326.872 84.3229 327.392 85.2167 327.75 86.2675C328.118 87.3075 328.302 88.4721 328.302 89.7612C328.302 91.0612 328.118 92.2312 327.75 93.2712C327.392 94.3112 326.872 95.1996 326.19 95.9362C325.507 96.6729 324.684 97.2417 323.72 97.6425C322.756 98.0325 321.672 98.2275 320.47 98.2275C319.256 98.2275 318.162 98.0325 317.187 97.6425C316.223 97.2417 315.4 96.6729 314.717 95.9362C314.035 95.1996 313.509 94.3112 313.141 93.2712C312.783 92.2312 312.605 91.0612 312.605 89.7612C312.605 88.4721 312.783 87.3075 313.141 86.2675C313.509 85.2167 314.035 84.3229 314.717 83.5862C315.4 82.8496 316.223 82.2808 317.187 81.88C318.162 81.4792 319.256 81.2787 320.47 81.2787ZM320.47 95.9688C322.095 95.9688 323.308 95.4271 324.11 94.3437C324.911 93.2496 325.312 91.7275 325.312 89.7775C325.312 87.8167 324.911 86.2892 324.11 85.195C323.308 84.1008 322.095 83.5537 320.47 83.5537C319.646 83.5537 318.926 83.6946 318.308 83.9762C317.702 84.2579 317.193 84.6642 316.781 85.195C316.38 85.7258 316.077 86.3812 315.871 87.1612C315.676 87.9304 315.578 88.8025 315.578 89.7775C315.578 91.7275 315.979 93.2496 316.781 94.3437C317.593 95.4271 318.823 95.9688 320.47 95.9688ZM341.558 84.2525C341.428 84.4908 341.228 84.61 340.957 84.61C340.795 84.61 340.611 84.5504 340.405 84.4312C340.199 84.3121 339.944 84.1821 339.641 84.0412C339.348 83.8896 338.996 83.7542 338.585 83.635C338.173 83.505 337.686 83.44 337.122 83.44C336.635 83.44 336.196 83.505 335.806 83.635C335.416 83.7542 335.08 83.9221 334.798 84.1387C334.528 84.3554 334.316 84.61 334.165 84.9025C334.024 85.1842 333.953 85.4929 333.953 85.8287C333.953 86.2512 334.073 86.6033 334.311 86.885C334.56 87.1667 334.885 87.4104 335.286 87.6162C335.687 87.8221 336.142 88.0062 336.651 88.1687C337.16 88.3204 337.68 88.4883 338.211 88.6725C338.753 88.8458 339.278 89.0408 339.787 89.2575C340.296 89.4742 340.751 89.745 341.152 90.07C341.553 90.395 341.873 90.7958 342.111 91.2725C342.36 91.7383 342.485 92.3017 342.485 92.9625C342.485 93.7208 342.349 94.425 342.078 95.075C341.808 95.7142 341.407 96.2721 340.876 96.7487C340.345 97.2146 339.695 97.5829 338.926 97.8537C338.157 98.1246 337.268 98.26 336.261 98.26C335.113 98.26 334.073 98.0758 333.141 97.7075C332.209 97.3283 331.418 96.8462 330.768 96.2612L331.451 95.1562C331.538 95.0154 331.641 94.9071 331.76 94.8312C331.879 94.7554 332.031 94.7175 332.215 94.7175C332.41 94.7175 332.616 94.7933 332.832 94.945C333.049 95.0967 333.309 95.2646 333.612 95.4487C333.926 95.6329 334.306 95.8008 334.75 95.9525C335.194 96.1042 335.746 96.18 336.407 96.18C336.971 96.18 337.463 96.1096 337.886 95.9688C338.308 95.8171 338.661 95.6167 338.942 95.3675C339.224 95.1183 339.43 94.8312 339.56 94.5062C339.701 94.1812 339.771 93.8346 339.771 93.4662C339.771 93.0112 339.646 92.6375 339.397 92.345C339.159 92.0417 338.839 91.7871 338.438 91.5812C338.038 91.3646 337.577 91.1804 337.057 91.0287C336.548 90.8662 336.023 90.6983 335.481 90.525C334.95 90.3517 334.425 90.1567 333.905 89.94C333.396 89.7125 332.941 89.4308 332.54 89.095C332.139 88.7592 331.814 88.3475 331.565 87.86C331.326 87.3617 331.207 86.7604 331.207 86.0562C331.207 85.4279 331.337 84.8267 331.597 84.2525C331.857 83.6675 332.236 83.1583 332.735 82.725C333.233 82.2808 333.845 81.9287 334.571 81.6688C335.297 81.4087 336.126 81.2787 337.057 81.2787C338.141 81.2787 339.11 81.4521 339.966 81.7987C340.833 82.1346 341.58 82.6004 342.208 83.1962L341.558 84.2525Z" fill="#FAA526"/>
</svg>
