<svg width="243" height="56" viewBox="0 0 243 56" fill="none" xmlns="http://www.w3.org/2000/svg">
<path d="M29.5935 2.84805V0.320292C29.5935 0.142989 29.4482 -0.00236678 29.2709 2.92023e-05C14.9701 0.17254 3.36957 11.7755 3.20185 26.0771C3.19946 26.2512 3.05969 26.3925 2.88479 26.3925H0.320292C0.142989 26.3925 -0.00236678 26.5379 2.92023e-05 26.7152C0.17254 41.016 11.7755 52.6165 26.0771 52.785C26.2512 52.7874 26.3925 52.9272 26.3925 53.1021V55.6298C26.3925 55.8071 26.5379 55.9525 26.7152 55.9501C41.016 55.7784 52.6165 44.1755 52.785 29.8731C52.7874 29.699 52.9272 29.5576 53.1021 29.5576H55.6666C55.8439 29.5576 55.9892 29.4123 55.9868 29.2349C55.8143 14.9342 44.2114 3.33363 29.9098 3.16512C29.7357 3.16272 29.5943 3.02295 29.5943 2.84805H29.5935ZM46.4085 29.8723C46.2416 40.659 37.5011 49.4019 26.7152 49.5736C26.5379 49.5768 26.3925 49.4306 26.3925 49.2533V46.7256C26.3925 46.5515 26.252 46.4117 26.0778 46.4085C15.2912 46.2416 6.54824 37.5011 6.37652 26.7152C6.37333 26.5379 6.51948 26.3925 6.69679 26.3925H9.26128C9.43539 26.3925 9.57515 26.252 9.57835 26.0778C9.74527 15.2912 18.4858 6.54824 29.2717 6.37652C29.449 6.37333 29.5943 6.51948 29.5943 6.69679V9.22534C29.5943 9.39945 29.7349 9.53922 29.909 9.54241C40.6949 9.70933 49.4386 18.4499 49.6103 29.2349C49.6135 29.4123 49.4674 29.5576 49.2901 29.5576H46.7256C46.5515 29.5576 46.4117 29.6982 46.4085 29.8723Z" fill="black"/>
<path d="M208.377 21.5773L209.544 21.3103C209.941 23.719 211.26 25.0348 213.968 25.0348C216.499 25.0348 217.534 24.0088 217.534 22.4698C217.534 20.9308 216.544 20.1946 213.793 19.6816C210.207 19.0122 209.04 17.6963 209.04 15.8007C209.04 13.7049 210.581 12.2764 213.573 12.2764C216.587 12.2764 217.842 13.8383 218.414 16.2678L217.205 16.5348C216.721 14.4598 215.884 13.3671 213.53 13.3671C211.307 13.3671 210.25 14.3034 210.25 15.7527C210.25 17.0916 211.042 17.9612 214.145 18.5847C217.777 19.2979 218.766 20.57 218.766 22.376C218.766 24.6053 217.359 26.1443 213.97 26.1443C210.491 26.1276 208.775 24.3654 208.377 21.5773Z" fill="black"/>
<path d="M219.447 12.5223H229.834V13.6818H225.256V25.9043H224.023V13.6818H219.447V12.5223Z" fill="black"/>
<path d="M240.659 20.8869V12.5223H241.892V20.9307C241.892 24.3424 240.131 26.1275 236.83 26.1275C233.507 26.1275 231.505 24.3882 231.505 20.9307V12.5223H232.738V20.7513C232.738 23.2037 233.727 25.0118 236.83 25.0118C239.781 25.0118 240.659 23.3622 240.659 20.8869Z" fill="black"/>
<path d="M209.346 31.5226H214.143C218.521 31.5226 220.723 33.8645 220.723 38.1688C220.723 42.4063 218.258 44.9046 214.254 44.9046H209.346V31.5226ZM210.579 32.6154V43.8119H214.145C217.974 43.8119 219.493 41.5805 219.493 38.1688C219.493 34.4213 217.82 32.6154 213.99 32.6154H210.579Z" fill="black"/>
<path d="M223.209 44.9046V31.5226H224.441V44.9046H223.209Z" fill="black"/>
<path d="M226.95 38.1919C226.95 34.1338 229.26 31.2788 233.398 31.2788C237.557 31.2788 239.867 34.1338 239.867 38.1919C239.867 42.2501 237.579 45.1509 233.398 45.1509C229.24 45.1509 226.95 42.2522 226.95 38.1919ZM238.635 38.1919C238.635 34.7802 236.919 32.4154 233.398 32.4154C229.9 32.4154 228.182 34.7802 228.182 38.1919C228.182 41.6036 229.855 44.0123 233.398 44.0123C236.962 44.0123 238.635 41.6057 238.635 38.1919Z" fill="black"/>
<path d="M242.75 43.0757V44.9046H240.945V43.0757H242.75Z" fill="black"/>
<path d="M83.4391 46.6923L70.0646 10.2228C69.8177 9.54926 70.3094 8.83397 71.0173 8.83397H76.5584C76.9946 8.83397 77.3815 9.1155 77.5214 9.53258L84.0029 28.8684C85.2477 32.5345 86.5502 36.5948 87.5934 40.2588C87.7189 40.7009 88.116 41.0054 88.5708 41.0054C89.0193 41.0054 89.4123 40.7093 89.544 40.2734C90.6407 36.6052 91.9452 32.5387 93.1901 28.8684L99.7354 9.52841C99.8753 9.11133 100.262 8.83189 100.696 8.83189H105.923C106.63 8.83189 107.122 9.54718 106.875 10.2208L93.5008 46.6902C93.3526 47.0927 92.972 47.3617 92.5481 47.3617H84.3938C83.9658 47.3638 83.5852 47.0968 83.4391 46.6923Z" fill="black"/>
<path d="M152.495 46.2295V9.97068C152.495 9.34298 152.997 8.83623 153.614 8.83623H158.595C159.215 8.83623 159.715 9.34506 159.715 9.97068V46.2295C159.715 46.8572 159.213 47.3639 158.595 47.3639H153.614C152.997 47.3639 152.495 46.8551 152.495 46.2295Z" fill="black"/>
<path d="M167.384 9.97068C167.384 9.34298 167.886 8.83623 168.503 8.83623H182.842C195.958 8.83623 201.976 15.5783 201.976 27.78C201.976 39.9816 194.754 47.366 182.842 47.366H168.503C167.884 47.366 167.384 46.8572 167.384 46.2316V9.97068ZM174.608 16.0705V40.1923C174.608 40.82 175.11 41.3267 175.727 41.3267H182.272C191.207 41.3267 194.754 36.4469 194.754 27.7779C194.754 18.7231 191.015 14.9339 181.892 14.9339H175.725C175.108 14.936 174.608 15.4428 174.608 16.0705Z" fill="black"/>
<path d="M127.91 8C115.999 8 108.902 15.8328 108.902 27.9698C108.902 40.1714 115.682 48.196 127.91 48.196C140.075 48.196 146.918 40.1714 146.918 27.9698C146.918 15.8348 139.885 8 127.91 8ZM127.846 41.8418C119.671 41.8418 116.06 36.3197 116.06 27.9698C116.06 19.8763 119.735 14.4189 127.91 14.4189C136.021 14.4189 139.696 19.8763 139.696 27.9698C139.696 36.3843 136.085 41.8418 127.846 41.8418Z" fill="black"/>
</svg>
