<svg width="218" height="26" viewBox="0 0 218 26" fill="none" xmlns="http://www.w3.org/2000/svg">
<path d="M7.8475 13.7875C8.74667 13.7875 9.5375 13.6683 10.22 13.43C10.9133 13.1917 11.4929 12.8612 11.9588 12.4387C12.4354 12.0054 12.7929 11.4908 13.0313 10.895C13.2696 10.2992 13.3888 9.64375 13.3888 8.92875C13.3888 7.44458 12.9283 6.28542 12.0075 5.45125C11.0975 4.61708 9.71083 4.2 7.8475 4.2H4.11V13.7875H7.8475ZM7.8475 1.71375C9.32083 1.71375 10.5992 1.88708 11.6825 2.23375C12.7767 2.56958 13.6813 3.05167 14.3963 3.68C15.1113 4.30833 15.6421 5.06667 15.9887 5.955C16.3463 6.84333 16.525 7.83458 16.525 8.92875C16.525 10.0121 16.3354 11.0033 15.9563 11.9025C15.5771 12.8017 15.0192 13.5762 14.2825 14.2262C13.5567 14.8762 12.6521 15.3854 11.5688 15.7537C10.4963 16.1112 9.25583 16.29 7.8475 16.29H4.11V25H0.97375V1.71375H7.8475ZM28.2237 17.59C26.8912 17.6333 25.7537 17.7417 24.8112 17.915C23.8796 18.0775 23.1158 18.2942 22.52 18.565C21.935 18.8358 21.5071 19.1554 21.2362 19.5237C20.9762 19.8921 20.8462 20.3037 20.8462 20.7587C20.8462 21.1921 20.9166 21.5658 21.0575 21.88C21.1983 22.1942 21.3879 22.4542 21.6262 22.66C21.8754 22.855 22.1625 23.0012 22.4875 23.0987C22.8233 23.1854 23.1808 23.2287 23.56 23.2287C24.0691 23.2287 24.535 23.18 24.9575 23.0825C25.38 22.9742 25.7754 22.8225 26.1437 22.6275C26.5229 22.4325 26.8804 22.1996 27.2162 21.9287C27.5629 21.6579 27.8987 21.3492 28.2237 21.0025V17.59ZM18.88 10.8625C19.79 9.985 20.7704 9.32958 21.8212 8.89625C22.8721 8.46292 24.0366 8.24625 25.315 8.24625C26.2358 8.24625 27.0537 8.39792 27.7687 8.70125C28.4837 9.00458 29.085 9.42708 29.5725 9.96875C30.06 10.5104 30.4283 11.1658 30.6775 11.935C30.9266 12.7042 31.0512 13.5492 31.0512 14.47V25H29.7675C29.4858 25 29.2691 24.9567 29.1175 24.87C28.9658 24.7725 28.8466 24.5883 28.76 24.3175L28.435 22.7575C28.0016 23.1583 27.5791 23.5158 27.1675 23.83C26.7558 24.1333 26.3225 24.3933 25.8675 24.61C25.4125 24.8158 24.925 24.9729 24.405 25.0813C23.8958 25.2004 23.3271 25.26 22.6987 25.26C22.0596 25.26 21.4583 25.1733 20.895 25C20.3316 24.8158 19.8387 24.545 19.4162 24.1875C19.0046 23.83 18.6741 23.3804 18.425 22.8387C18.1866 22.2862 18.0675 21.6362 18.0675 20.8887C18.0675 20.2387 18.2462 19.6158 18.6037 19.02C18.9612 18.4133 19.5408 17.8771 20.3425 17.4112C21.1441 16.9454 22.1896 16.5662 23.4787 16.2737C24.7679 15.9704 26.3496 15.7971 28.2237 15.7537V14.47C28.2237 13.1917 27.9475 12.2275 27.395 11.5775C26.8425 10.9167 26.0354 10.5862 24.9737 10.5862C24.2587 10.5862 23.6575 10.6783 23.17 10.8625C22.6933 11.0358 22.2762 11.2362 21.9187 11.4637C21.5721 11.6804 21.2687 11.8808 21.0087 12.065C20.7596 12.2383 20.5104 12.325 20.2612 12.325C20.0662 12.325 19.8983 12.2762 19.7575 12.1787C19.6166 12.0704 19.4975 11.9404 19.4 11.7887L18.88 10.8625ZM48.9935 8.53875V25H47.271C46.8593 25 46.5993 24.7996 46.491 24.3987L46.2635 22.6275C45.5485 23.4183 44.7468 24.0575 43.8585 24.545C42.9702 25.0217 41.9518 25.26 40.8035 25.26C39.9043 25.26 39.1081 25.1138 38.4148 24.8212C37.7323 24.5179 37.1581 24.0954 36.6923 23.5537C36.2264 23.0121 35.8743 22.3567 35.636 21.5875C35.4085 20.8183 35.2948 19.9679 35.2948 19.0362V8.53875H38.1873V19.0362C38.1873 20.2821 38.4689 21.2462 39.0323 21.9287C39.6064 22.6112 40.4785 22.9525 41.6485 22.9525C42.5043 22.9525 43.3006 22.7521 44.0373 22.3512C44.7848 21.9396 45.4727 21.3762 46.101 20.6612V8.53875H48.9935ZM56.5698 1.06375V25H53.6773V1.06375H56.5698ZM68.1992 8.27875C69.4017 8.27875 70.4851 8.47917 71.4492 8.88C72.4134 9.28083 73.2367 9.84958 73.9192 10.5862C74.6017 11.3229 75.1217 12.2167 75.4792 13.2675C75.8476 14.3075 76.0317 15.4721 76.0317 16.7612C76.0317 18.0612 75.8476 19.2312 75.4792 20.2712C75.1217 21.3112 74.6017 22.1996 73.9192 22.9362C73.2367 23.6729 72.4134 24.2417 71.4492 24.6425C70.4851 25.0325 69.4017 25.2275 68.1992 25.2275C66.9859 25.2275 65.8917 25.0325 64.9167 24.6425C63.9526 24.2417 63.1292 23.6729 62.4467 22.9362C61.7642 22.1996 61.2388 21.3112 60.8705 20.2712C60.513 19.2312 60.3342 18.0612 60.3342 16.7612C60.3342 15.4721 60.513 14.3075 60.8705 13.2675C61.2388 12.2167 61.7642 11.3229 62.4467 10.5862C63.1292 9.84958 63.9526 9.28083 64.9167 8.88C65.8917 8.47917 66.9859 8.27875 68.1992 8.27875ZM68.1992 22.9688C69.8242 22.9688 71.0376 22.4271 71.8392 21.3437C72.6409 20.2496 73.0417 18.7275 73.0417 16.7775C73.0417 14.8167 72.6409 13.2892 71.8392 12.195C71.0376 11.1008 69.8242 10.5537 68.1992 10.5537C67.3759 10.5537 66.6555 10.6946 66.038 10.9762C65.4313 11.2579 64.9222 11.6642 64.5105 12.195C64.1097 12.7258 63.8063 13.3812 63.6005 14.1612C63.4055 14.9304 63.308 15.8025 63.308 16.7775C63.308 18.7275 63.7088 20.2496 64.5105 21.3437C65.323 22.4271 66.5526 22.9688 68.1992 22.9688ZM81.0009 0.153749C81.4559 0.922916 81.7647 1.73542 81.9272 2.59125C82.0897 3.44708 82.1059 4.29208 81.9759 5.12625C81.8459 5.96042 81.5751 6.76208 81.1634 7.53125C80.7518 8.30042 80.2047 8.98292 79.5222 9.57875L78.6447 9.01C78.4822 8.9125 78.4064 8.78792 78.4172 8.63625C78.4389 8.47375 78.493 8.34375 78.5797 8.24625C78.8614 7.89958 79.0997 7.4825 79.2947 6.995C79.5005 6.49667 79.6305 5.96583 79.6847 5.4025C79.7497 4.82833 79.7226 4.23792 79.6034 3.63125C79.4951 3.02458 79.273 2.43958 78.9372 1.87625C78.7964 1.64875 78.753 1.44833 78.8072 1.275C78.8722 1.09083 79.0076 0.955415 79.2134 0.86875L81.0009 0.153749ZM94.8104 11.2525C94.6804 11.4908 94.48 11.61 94.2091 11.61C94.0466 11.61 93.8625 11.5504 93.6566 11.4312C93.4508 11.3121 93.1962 11.1821 92.8929 11.0412C92.6004 10.8896 92.2483 10.7542 91.8366 10.635C91.425 10.505 90.9375 10.44 90.3741 10.44C89.8866 10.44 89.4479 10.505 89.0579 10.635C88.6679 10.7542 88.3321 10.9221 88.0504 11.1387C87.7796 11.3554 87.5683 11.61 87.4166 11.9025C87.2758 12.1842 87.2054 12.4929 87.2054 12.8287C87.2054 13.2512 87.3246 13.6033 87.5629 13.885C87.8121 14.1667 88.1371 14.4104 88.5379 14.6162C88.9387 14.8221 89.3937 15.0062 89.9029 15.1687C90.4121 15.3204 90.9321 15.4883 91.4629 15.6725C92.0046 15.8458 92.53 16.0408 93.0391 16.2575C93.5483 16.4742 94.0033 16.745 94.4041 17.07C94.805 17.395 95.1246 17.7958 95.3629 18.2725C95.6121 18.7383 95.7366 19.3017 95.7366 19.9625C95.7366 20.7208 95.6012 21.425 95.3304 22.075C95.0596 22.7142 94.6587 23.2721 94.1279 23.7487C93.5971 24.2146 92.9471 24.5829 92.1779 24.8537C91.4087 25.1246 90.5204 25.26 89.5129 25.26C88.3646 25.26 87.3246 25.0758 86.3929 24.7075C85.4612 24.3283 84.6704 23.8462 84.0204 23.2612L84.7029 22.1562C84.7896 22.0154 84.8925 21.9071 85.0116 21.8312C85.1308 21.7554 85.2825 21.7175 85.4666 21.7175C85.6616 21.7175 85.8675 21.7933 86.0841 21.945C86.3008 22.0967 86.5608 22.2646 86.8641 22.4487C87.1783 22.6329 87.5575 22.8008 88.0016 22.9525C88.4458 23.1042 88.9983 23.18 89.6591 23.18C90.2225 23.18 90.7154 23.1096 91.1379 22.9688C91.5604 22.8171 91.9125 22.6167 92.1941 22.3675C92.4758 22.1183 92.6816 21.8312 92.8116 21.5062C92.9525 21.1812 93.0229 20.8346 93.0229 20.4662C93.0229 20.0112 92.8983 19.6375 92.6491 19.345C92.4108 19.0417 92.0912 18.7871 91.6904 18.5812C91.2896 18.3646 90.8291 18.1804 90.3091 18.0287C89.8 17.8662 89.2746 17.6983 88.7329 17.525C88.2021 17.3517 87.6766 17.1567 87.1566 16.94C86.6475 16.7125 86.1925 16.4308 85.7916 16.095C85.3908 15.7592 85.0658 15.3475 84.8166 14.86C84.5783 14.3617 84.4591 13.7604 84.4591 13.0562C84.4591 12.4279 84.5891 11.8267 84.8491 11.2525C85.1091 10.6675 85.4883 10.1583 85.9866 9.725C86.485 9.28083 87.0971 8.92875 87.8229 8.66875C88.5487 8.40875 89.3775 8.27875 90.3091 8.27875C91.3925 8.27875 92.3621 8.45208 93.2179 8.79875C94.0846 9.13458 94.8321 9.60042 95.4604 10.1962L94.8104 11.2525Z" fill="white"/>
<path d="M122.646 22.4325L122.63 25H108.281V1.71375H122.63V4.28125H111.433V12.0162H120.501V14.4862H111.433V22.4325H122.646ZM139.699 8.53875L132.988 25H130.388L123.676 8.53875H126.033C126.271 8.53875 126.466 8.59833 126.618 8.7175C126.769 8.83667 126.872 8.9775 126.926 9.14L131.103 19.735C131.233 20.1358 131.346 20.5258 131.444 20.905C131.541 21.2842 131.634 21.6633 131.72 22.0425C131.807 21.6633 131.899 21.2842 131.996 20.905C132.094 20.5258 132.213 20.1358 132.354 19.735L136.579 9.14C136.644 8.96667 136.752 8.82583 136.904 8.7175C137.056 8.59833 137.234 8.53875 137.44 8.53875H139.699ZM152.925 14.9737C152.925 14.3021 152.827 13.69 152.632 13.1375C152.448 12.5742 152.172 12.0921 151.804 11.6912C151.446 11.2796 151.007 10.9654 150.487 10.7487C149.967 10.5212 149.377 10.4075 148.716 10.4075C147.33 10.4075 146.23 10.8137 145.417 11.6262C144.616 12.4279 144.117 13.5437 143.922 14.9737H152.925ZM155.265 22.6925C154.907 23.1258 154.48 23.505 153.981 23.83C153.483 24.1442 152.947 24.4042 152.372 24.61C151.809 24.8158 151.224 24.9675 150.617 25.065C150.011 25.1733 149.41 25.2275 148.814 25.2275C147.676 25.2275 146.625 25.0379 145.661 24.6587C144.708 24.2687 143.879 23.7054 143.175 22.9688C142.482 22.2212 141.94 21.3004 141.55 20.2062C141.16 19.1121 140.965 17.8554 140.965 16.4362C140.965 15.2879 141.138 14.2154 141.485 13.2187C141.842 12.2221 142.352 11.3608 143.012 10.635C143.673 9.89833 144.48 9.32417 145.434 8.9125C146.387 8.49 147.46 8.27875 148.651 8.27875C149.637 8.27875 150.547 8.44667 151.381 8.7825C152.226 9.1075 152.952 9.58417 153.559 10.2125C154.176 10.83 154.658 11.5992 155.005 12.52C155.352 13.43 155.525 14.47 155.525 15.64C155.525 16.095 155.476 16.3983 155.379 16.55C155.281 16.7017 155.097 16.7775 154.826 16.7775H143.825C143.857 17.8175 143.998 18.7221 144.247 19.4912C144.507 20.2604 144.865 20.905 145.32 21.425C145.775 21.9342 146.317 22.3187 146.945 22.5787C147.573 22.8279 148.277 22.9525 149.057 22.9525C149.783 22.9525 150.406 22.8712 150.926 22.7087C151.457 22.5354 151.912 22.3512 152.291 22.1562C152.67 21.9612 152.985 21.7825 153.234 21.62C153.494 21.4467 153.716 21.36 153.9 21.36C154.138 21.36 154.322 21.4521 154.452 21.6362L155.265 22.6925ZM161.808 10.9275C162.165 10.5267 162.545 10.1637 162.945 9.83875C163.346 9.51375 163.769 9.2375 164.213 9.01C164.668 8.77167 165.145 8.59292 165.643 8.47375C166.152 8.34375 166.699 8.27875 167.284 8.27875C168.183 8.27875 168.974 8.43042 169.657 8.73375C170.35 9.02625 170.924 9.44875 171.379 10.0012C171.845 10.5429 172.197 11.1983 172.435 11.9675C172.674 12.7367 172.793 13.5871 172.793 14.5187V25H169.884V14.5187C169.884 13.2729 169.597 12.3087 169.023 11.6262C168.46 10.9329 167.598 10.5862 166.439 10.5862C165.583 10.5862 164.782 10.7921 164.034 11.2037C163.297 11.6154 162.615 12.1733 161.987 12.8775V25H159.078V8.53875H160.817C161.228 8.53875 161.483 8.73917 161.58 9.14L161.808 10.9275ZM182.032 25.26C180.732 25.26 179.73 24.8971 179.026 24.1712C178.332 23.4454 177.986 22.4 177.986 21.035V10.96H176.003C175.83 10.96 175.684 10.9112 175.565 10.8137C175.445 10.7054 175.386 10.5429 175.386 10.3262V9.1725L178.083 8.83125L178.75 3.745C178.782 3.5825 178.852 3.4525 178.961 3.355C179.08 3.24667 179.232 3.1925 179.416 3.1925H180.878V8.86375H185.64V10.96H180.878V20.84C180.878 21.5333 181.046 22.0479 181.382 22.3837C181.718 22.7196 182.151 22.8875 182.682 22.8875C182.985 22.8875 183.245 22.8496 183.462 22.7737C183.69 22.6871 183.885 22.595 184.047 22.4975C184.21 22.4 184.345 22.3133 184.453 22.2375C184.572 22.1508 184.675 22.1075 184.762 22.1075C184.914 22.1075 185.049 22.1996 185.168 22.3837L186.013 23.765C185.515 24.2308 184.914 24.5992 184.21 24.87C183.505 25.13 182.78 25.26 182.032 25.26ZM195.47 8.27875C196.672 8.27875 197.756 8.47917 198.72 8.88C199.684 9.28083 200.507 9.84958 201.19 10.5862C201.872 11.3229 202.392 12.2167 202.75 13.2675C203.118 14.3075 203.302 15.4721 203.302 16.7612C203.302 18.0612 203.118 19.2312 202.75 20.2712C202.392 21.3112 201.872 22.1996 201.19 22.9362C200.507 23.6729 199.684 24.2417 198.72 24.6425C197.756 25.0325 196.672 25.2275 195.47 25.2275C194.256 25.2275 193.162 25.0325 192.187 24.6425C191.223 24.2417 190.4 23.6729 189.717 22.9362C189.035 22.1996 188.509 21.3112 188.141 20.2712C187.783 19.2312 187.605 18.0612 187.605 16.7612C187.605 15.4721 187.783 14.3075 188.141 13.2675C188.509 12.2167 189.035 11.3229 189.717 10.5862C190.4 9.84958 191.223 9.28083 192.187 8.88C193.162 8.47917 194.256 8.27875 195.47 8.27875ZM195.47 22.9688C197.095 22.9688 198.308 22.4271 199.11 21.3437C199.911 20.2496 200.312 18.7275 200.312 16.7775C200.312 14.8167 199.911 13.2892 199.11 12.195C198.308 11.1008 197.095 10.5537 195.47 10.5537C194.646 10.5537 193.926 10.6946 193.308 10.9762C192.702 11.2579 192.193 11.6642 191.781 12.195C191.38 12.7258 191.077 13.3812 190.871 14.1612C190.676 14.9304 190.578 15.8025 190.578 16.7775C190.578 18.7275 190.979 20.2496 191.781 21.3437C192.593 22.4271 193.823 22.9688 195.47 22.9688ZM216.558 11.2525C216.428 11.4908 216.228 11.61 215.957 11.61C215.795 11.61 215.611 11.5504 215.405 11.4312C215.199 11.3121 214.944 11.1821 214.641 11.0412C214.348 10.8896 213.996 10.7542 213.585 10.635C213.173 10.505 212.686 10.44 212.122 10.44C211.635 10.44 211.196 10.505 210.806 10.635C210.416 10.7542 210.08 10.9221 209.798 11.1387C209.528 11.3554 209.316 11.61 209.165 11.9025C209.024 12.1842 208.953 12.4929 208.953 12.8287C208.953 13.2512 209.073 13.6033 209.311 13.885C209.56 14.1667 209.885 14.4104 210.286 14.6162C210.687 14.8221 211.142 15.0062 211.651 15.1687C212.16 15.3204 212.68 15.4883 213.211 15.6725C213.753 15.8458 214.278 16.0408 214.787 16.2575C215.296 16.4742 215.751 16.745 216.152 17.07C216.553 17.395 216.873 17.7958 217.111 18.2725C217.36 18.7383 217.485 19.3017 217.485 19.9625C217.485 20.7208 217.349 21.425 217.078 22.075C216.808 22.7142 216.407 23.2721 215.876 23.7487C215.345 24.2146 214.695 24.5829 213.926 24.8537C213.157 25.1246 212.268 25.26 211.261 25.26C210.113 25.26 209.073 25.0758 208.141 24.7075C207.209 24.3283 206.418 23.8462 205.768 23.2612L206.451 22.1562C206.538 22.0154 206.641 21.9071 206.76 21.8312C206.879 21.7554 207.031 21.7175 207.215 21.7175C207.41 21.7175 207.616 21.7933 207.832 21.945C208.049 22.0967 208.309 22.2646 208.612 22.4487C208.926 22.6329 209.306 22.8008 209.75 22.9525C210.194 23.1042 210.746 23.18 211.407 23.18C211.971 23.18 212.463 23.1096 212.886 22.9688C213.308 22.8171 213.661 22.6167 213.942 22.3675C214.224 22.1183 214.43 21.8312 214.56 21.5062C214.701 21.1812 214.771 20.8346 214.771 20.4662C214.771 20.0112 214.646 19.6375 214.397 19.345C214.159 19.0417 213.839 18.7871 213.438 18.5812C213.038 18.3646 212.577 18.1804 212.057 18.0287C211.548 17.8662 211.023 17.6983 210.481 17.525C209.95 17.3517 209.425 17.1567 208.905 16.94C208.396 16.7125 207.941 16.4308 207.54 16.095C207.139 15.7592 206.814 15.3475 206.565 14.86C206.326 14.3617 206.207 13.7604 206.207 13.0562C206.207 12.4279 206.337 11.8267 206.597 11.2525C206.857 10.6675 207.236 10.1583 207.735 9.725C208.233 9.28083 208.845 8.92875 209.571 8.66875C210.297 8.40875 211.126 8.27875 212.057 8.27875C213.141 8.27875 214.11 8.45208 214.966 8.79875C215.833 9.13458 216.58 9.60042 217.208 10.1962L216.558 11.2525Z" fill="#FAA526"/>
</svg>
