<svg width="298" height="31" viewBox="0 0 298 31" fill="none" xmlns="http://www.w3.org/2000/svg">
<path d="M0.0255682 16.3295V14.625L13.7472 7.63636V10.3636L3.22159 15.4347L3.30682 15.2642V15.6903L3.22159 15.5199L13.7472 20.5909V23.3182L0.0255682 16.3295ZM26.7896 1.15909L19.7583 27.2812H17.4572L24.4885 1.15909H26.7896ZM38.1443 24V2.4H57.9743V6.03H41.7743V11.4H54.8243V15H41.7743V24H38.1443ZM63.634 24C62.894 24 62.224 23.82 61.624 23.46C61.024 23.08 60.534 22.59 60.154 21.99C59.794 21.39 59.614 20.72 59.614 19.98V10.62C59.614 9.88 59.794 9.21 60.154 8.61C60.534 8.01 61.024 7.53 61.624 7.17C62.224 6.79 62.894 6.6 63.634 6.6H73.264C74.024 6.6 74.704 6.79 75.304 7.17C75.904 7.53 76.384 8.01 76.744 8.61C77.104 9.21 77.284 9.88 77.284 10.62V17.1H63.184V19.86C63.184 20.02 63.234 20.16 63.334 20.28C63.454 20.38 63.594 20.43 63.754 20.43H77.284V24H63.634ZM63.184 13.83H73.714V10.74C73.714 10.58 73.654 10.45 73.534 10.35C73.434 10.23 73.304 10.17 73.144 10.17H63.754C63.594 10.17 63.454 10.23 63.334 10.35C63.234 10.45 63.184 10.58 63.184 10.74V13.83ZM83.7616 24C83.0216 24 82.3516 23.82 81.7516 23.46C81.1516 23.08 80.6616 22.59 80.2816 21.99C79.9216 21.39 79.7416 20.72 79.7416 19.98V0.869999H83.3416V19.86C83.3416 20.02 83.3916 20.16 83.4916 20.28C83.6116 20.38 83.7416 20.43 83.8816 20.43H87.1216V24H83.7616ZM89.8198 24V6.6H93.3898V24H89.8198ZM89.8198 4.5V0.899999H93.3898V4.5H89.8198ZM96.3837 30.9V6.6H110.064C110.784 6.6 111.444 6.79 112.044 7.17C112.664 7.53 113.154 8.01 113.514 8.61C113.874 9.21 114.054 9.88 114.054 10.62V19.98C114.054 20.72 113.874 21.39 113.514 21.99C113.154 22.59 112.664 23.08 112.044 23.46C111.444 23.82 110.784 24 110.064 24H99.9537V30.9H96.3837ZM100.524 20.43H109.944C110.084 20.43 110.204 20.38 110.304 20.28C110.424 20.16 110.484 20.02 110.484 19.86V10.74C110.484 10.58 110.424 10.45 110.304 10.35C110.204 10.23 110.084 10.17 109.944 10.17H100.524C100.384 10.17 100.254 10.23 100.134 10.35C100.014 10.45 99.9537 10.58 99.9537 10.74V19.86C99.9537 20.02 100.014 20.16 100.134 20.28C100.254 20.38 100.384 20.43 100.524 20.43ZM120.236 24C119.496 24 118.826 23.82 118.226 23.46C117.626 23.08 117.136 22.59 116.756 21.99C116.396 21.39 116.216 20.72 116.216 19.98V10.62C116.216 9.88 116.396 9.21 116.756 8.61C117.136 8.01 117.626 7.53 118.226 7.17C118.826 6.79 119.496 6.6 120.236 6.6H129.866C130.626 6.6 131.306 6.79 131.906 7.17C132.506 7.53 132.986 8.01 133.346 8.61C133.706 9.21 133.886 9.88 133.886 10.62V17.1H119.786V19.86C119.786 20.02 119.836 20.16 119.936 20.28C120.056 20.38 120.196 20.43 120.356 20.43H133.886V24H120.236ZM119.786 13.83H130.316V10.74C130.316 10.58 130.256 10.45 130.136 10.35C130.036 10.23 129.906 10.17 129.746 10.17H120.356C120.196 10.17 120.056 10.23 119.936 10.35C119.836 10.45 119.786 10.58 119.786 10.74V13.83ZM297.019 16.3295L283.297 23.3182V20.5909L293.823 15.5199L293.737 15.6903V15.2642L293.823 15.4347L283.297 10.3636V7.63636L297.019 14.625V16.3295Z" fill="white"/>
<path d="M150.123 24C149.383 24 148.703 23.82 148.083 23.46C147.463 23.1 146.973 22.61 146.613 21.99C146.253 21.37 146.073 20.69 146.073 19.95V6.45C146.073 5.71 146.253 5.03 146.613 4.41C146.973 3.79 147.463 3.3 148.083 2.94C148.703 2.58 149.383 2.4 150.123 2.4H167.613V6.03H150.753C150.433 6.03 150.173 6.13 149.973 6.33C149.773 6.51 149.673 6.76 149.673 7.08V19.32C149.673 19.64 149.773 19.9 149.973 20.1C150.173 20.28 150.433 20.37 150.753 20.37H167.613V24H150.123ZM174.641 24C173.901 24 173.221 23.82 172.601 23.46C172.001 23.08 171.521 22.59 171.161 21.99C170.801 21.39 170.621 20.72 170.621 19.98V13.5H184.721V10.74C184.721 10.58 184.661 10.45 184.541 10.35C184.441 10.23 184.311 10.17 184.151 10.17H170.621V6.6H184.271C185.031 6.6 185.711 6.79 186.311 7.17C186.911 7.53 187.391 8.01 187.751 8.61C188.111 9.21 188.291 9.88 188.291 10.62V24H174.641ZM174.761 20.43H184.721V16.77H174.191V19.86C174.191 20.02 174.241 20.16 174.341 20.28C174.461 20.38 174.601 20.43 174.761 20.43ZM194.706 24C193.966 24 193.296 23.82 192.696 23.46C192.096 23.08 191.606 22.59 191.226 21.99C190.866 21.39 190.686 20.72 190.686 19.98V19.41H194.256V19.86C194.256 20.02 194.306 20.16 194.406 20.28C194.526 20.38 194.666 20.43 194.826 20.43H204.216C204.376 20.43 204.506 20.38 204.606 20.28C204.726 20.16 204.786 20.02 204.786 19.86V17.64C204.786 17.5 204.726 17.38 204.606 17.28C204.506 17.16 204.376 17.1 204.216 17.1H194.706C193.966 17.1 193.296 16.92 192.696 16.56C192.096 16.18 191.606 15.69 191.226 15.09C190.866 14.49 190.686 13.82 190.686 13.08V10.62C190.686 9.88 190.866 9.21 191.226 8.61C191.606 8.01 192.096 7.53 192.696 7.17C193.296 6.79 193.966 6.6 194.706 6.6H204.336C205.096 6.6 205.776 6.79 206.376 7.17C206.976 7.53 207.456 8.01 207.816 8.61C208.196 9.21 208.386 9.88 208.386 10.62V11.19H204.786V10.74C204.786 10.58 204.726 10.45 204.606 10.35C204.506 10.23 204.376 10.17 204.216 10.17H194.826C194.666 10.17 194.526 10.23 194.406 10.35C194.306 10.45 194.256 10.58 194.256 10.74V12.96C194.256 13.1 194.306 13.23 194.406 13.35C194.526 13.45 194.666 13.5 194.826 13.5H204.336C205.096 13.5 205.776 13.69 206.376 14.07C206.976 14.43 207.456 14.91 207.816 15.51C208.196 16.11 208.386 16.78 208.386 17.52V19.98C208.386 20.72 208.196 21.39 207.816 21.99C207.456 22.59 206.976 23.08 206.376 23.46C205.776 23.82 205.096 24 204.336 24H194.706ZM215.423 24C214.683 24 214.003 23.82 213.383 23.46C212.783 23.08 212.303 22.59 211.943 21.99C211.583 21.39 211.403 20.72 211.403 19.98V1.17H214.973V6.6H221.933V10.17H214.973V19.86C214.973 20.02 215.023 20.16 215.123 20.28C215.243 20.38 215.383 20.43 215.543 20.43H221.933V24H215.423ZM224.38 24V6.6H227.95V24H224.38ZM224.38 4.5V0.899999H227.95V4.5H224.38ZM235.432 24C234.692 24 234.022 23.82 233.422 23.46C232.822 23.08 232.332 22.59 231.952 21.99C231.592 21.39 231.412 20.72 231.412 19.98V0.869999H235.012V19.86C235.012 20.02 235.062 20.16 235.162 20.28C235.282 20.38 235.412 20.43 235.552 20.43H238.792V24H235.432ZM241.081 24V0.899999H244.651V6.6H254.761C255.481 6.6 256.141 6.79 256.741 7.17C257.361 7.53 257.851 8.01 258.211 8.61C258.571 9.21 258.751 9.88 258.751 10.62V24H255.181V10.74C255.181 10.58 255.121 10.45 255.001 10.35C254.901 10.23 254.781 10.17 254.641 10.17H245.221C245.081 10.17 244.951 10.23 244.831 10.35C244.711 10.45 244.651 10.58 244.651 10.74V24H241.081ZM265.05 24C264.31 24 263.64 23.82 263.04 23.46C262.44 23.08 261.95 22.59 261.57 21.99C261.21 21.39 261.03 20.72 261.03 19.98V10.62C261.03 9.88 261.21 9.21 261.57 8.61C261.95 8.01 262.44 7.53 263.04 7.17C263.64 6.79 264.31 6.6 265.05 6.6H274.68C275.44 6.6 276.12 6.79 276.72 7.17C277.32 7.53 277.8 8.01 278.16 8.61C278.52 9.21 278.7 9.88 278.7 10.62V19.98C278.7 20.72 278.52 21.39 278.16 21.99C277.8 22.59 277.32 23.08 276.72 23.46C276.12 23.82 275.44 24 274.68 24H265.05ZM265.17 20.43H274.56C274.72 20.43 274.85 20.38 274.95 20.28C275.07 20.16 275.13 20.02 275.13 19.86V10.74C275.13 10.58 275.07 10.45 274.95 10.35C274.85 10.23 274.72 10.17 274.56 10.17H265.17C265.01 10.17 264.87 10.23 264.75 10.35C264.65 10.45 264.6 10.58 264.6 10.74V19.86C264.6 20.02 264.65 20.16 264.75 20.28C264.87 20.38 265.01 20.43 265.17 20.43Z" fill="#FE912C"/>
</svg>
