<svg width="91" height="96" viewBox="0 0 91 96" fill="none" xmlns="http://www.w3.org/2000/svg">
<rect width="90.7417" height="95.4352" rx="10" fill="#F8F8F8"/>
<path d="M25.4967 24.5365C25.242 24.5365 24.9977 24.6377 24.8176 24.8178C24.6375 24.9979 24.5363 25.2422 24.5363 25.4969V62.1838C24.5363 62.5296 24.7207 62.8446 25.0165 63.0175L43.6826 73.7815C43.8253 73.864 43.9869 73.9085 44.1517 73.9105C44.3165 73.9125 44.4791 73.8721 44.6238 73.793L64.3733 62.9714C64.5248 62.8884 64.6512 62.7662 64.7391 62.6174C64.827 62.4687 64.8732 62.299 64.8727 62.1262V25.4969C64.8727 25.2422 64.7715 24.9979 64.5914 24.8178C64.4113 24.6377 64.167 24.5365 63.9123 24.5365H25.4967ZM18.7739 25.4969C18.7739 21.786 21.7857 18.7742 25.4967 18.7742H63.9123C67.6232 18.7742 70.635 21.786 70.635 25.4969V62.1301C70.6346 63.3351 70.3102 64.5179 69.6959 65.5546C69.0815 66.5914 68.1998 67.4439 67.1431 68.023L47.3936 78.8485C46.3807 79.4029 45.2421 79.6871 44.0874 79.6736C42.9328 79.6602 41.8011 79.3496 40.8015 78.7717L22.1391 68.0076C21.1162 67.4179 20.2666 66.5692 19.6758 65.5469C19.0851 64.5245 18.774 63.3646 18.7739 62.1838V25.4969ZM33.1798 35.1008C33.1798 34.3367 33.4833 33.6038 34.0237 33.0635C34.564 32.5232 35.2968 32.2196 36.061 32.2196H53.7898C54.5539 32.2196 55.2868 32.5232 55.8271 33.0635C56.3674 33.6038 56.6709 34.3367 56.6709 35.1008V58.519C56.6713 59.0539 56.5227 59.5784 56.2418 60.0337C55.9609 60.4889 55.5588 60.857 55.0805 61.0967L46.2142 65.5298C45.8146 65.7294 45.374 65.8332 44.9273 65.8332C44.4806 65.8332 44.04 65.7294 43.6404 65.5298L34.774 61.0967C34.2956 60.8578 33.8931 60.4906 33.6116 60.036C33.33 59.5815 33.1805 59.0575 33.1798 58.5228V56.3024C33.1798 55.5383 33.4833 54.8054 34.0237 54.2651C34.564 53.7248 35.2968 53.4212 36.061 53.4212C36.8251 53.4212 37.5579 53.7248 38.0983 54.2651C38.6386 54.8054 38.9421 55.5383 38.9421 56.3024V56.7403L44.9273 59.7291L50.9086 56.7403V50.3211H40.8629C40.0988 50.3211 39.3659 50.0175 38.8256 49.4772C38.2853 48.9369 37.9817 48.204 37.9817 47.4399C37.9817 46.6758 38.2853 45.9429 38.8256 45.4026C39.3659 44.8623 40.0988 44.5587 40.8629 44.5587H50.9086V37.982H36.061C35.2968 37.982 34.564 37.6784 34.0237 37.1381C33.4833 36.5978 33.1798 35.8649 33.1798 35.1008Z" fill="#181818"/>
</svg>
