<svg width="92" height="96" viewBox="0 0 92 96" fill="none" xmlns="http://www.w3.org/2000/svg">
<rect x="0.578613" width="91.4212" height="95.4352" rx="10" fill="#F8F8F8"/>
<path d="M21.3013 65.4972C21.392 66.6073 21.7866 67.7237 22.8164 69.2213C24.0404 70.9996 26.1422 71.9757 27.6763 70.4089C28.7104 69.3512 39.9031 49.9325 45.2969 42.5722C45.4449 42.3617 45.6419 42.1899 45.8712 42.0712C46.1004 41.9526 46.3551 41.8906 46.6137 41.8906C46.8723 41.8906 47.127 41.9526 47.3562 42.0712C47.5855 42.1899 47.7825 42.3617 47.9305 42.5722C53.3243 49.9325 64.5171 69.3512 65.5511 70.4089C67.0852 71.9757 69.187 70.9996 70.411 69.2213C71.6138 67.4723 71.9472 66.247 71.9472 64.9358C71.9472 64.0435 54.5166 31.8459 52.7609 29.1649C51.0727 26.5886 50.5578 26.0272 47.7026 25.9351H45.5248C42.6696 26.0272 42.1547 26.5865 40.4644 29.1649C38.8398 31.6471 23.7699 59.4487 21.5512 64.2496C21.3684 64.6451 21.3013 65.0615 21.3013 65.4972Z" fill="#181818"/>
</svg>
