<svg width="91" height="97" viewBox="0 0 91 97" fill="none" xmlns="http://www.w3.org/2000/svg">
<rect x="0.161133" y="0.782471" width="90.7417" height="95.4352" rx="10" fill="#F8F8F8"/>
<path d="M45.532 16.4277V59.6474M45.532 59.6474V69.8167C45.532 71.828 44.9356 73.7941 43.8182 75.4665C42.7008 77.1388 41.1125 78.4423 39.2543 79.2119C37.3961 79.9816 35.3514 80.183 33.3788 79.7906C31.4061 79.3983 29.5941 78.4297 28.1719 77.0075C26.7497 75.5853 25.7812 73.7733 25.3888 71.8006C24.9964 69.828 25.1978 67.7833 25.9675 65.9251C26.7372 64.0669 28.0406 62.4786 29.7129 61.3612C31.3853 60.2438 33.3514 59.6474 35.3627 59.6474M45.532 59.6474H35.3627M35.3627 59.6474C32.6656 59.6474 30.079 58.576 28.1719 56.6689C26.2648 54.7617 25.1934 52.1751 25.1934 49.4781C25.1934 46.781 26.2648 44.1944 28.1719 42.2873C30.079 40.3801 32.6656 39.3087 35.3627 39.3087M35.3627 39.3087H45.532M35.3627 39.3087H55.7013M35.3627 39.3087C32.6656 39.3087 30.079 38.2373 28.1719 36.3302C26.2648 34.4231 25.1934 31.8365 25.1934 29.1394C25.1934 26.4423 26.2648 23.8557 28.1719 21.9486C30.079 20.0415 32.6656 18.9701 35.3627 18.9701H55.7013C58.3984 18.9701 60.985 20.0415 62.8921 21.9486C64.7993 23.8557 65.8707 26.4423 65.8707 29.1394C65.8707 31.8365 64.7993 34.4231 62.8921 36.3302C60.985 38.2373 58.3984 39.3087 55.7013 39.3087M55.7013 39.3087C58.3984 39.3087 60.985 40.3801 62.8921 42.2873C64.7993 44.1944 65.8707 46.781 65.8707 49.4781C65.8707 52.1751 64.7993 54.7617 62.8921 56.6689C60.985 58.576 58.3984 59.6474 55.7013 59.6474C53.0043 59.6474 50.4177 58.576 48.5105 56.6689C46.6034 54.7617 45.532 52.1751 45.532 49.4781C45.532 46.781 46.6034 44.1944 48.5105 42.2873C50.4177 40.3801 53.0043 39.3087 55.7013 39.3087Z" stroke="#181818" stroke-width="5.08466"/>
</svg>
