<svg width="91" height="96" viewBox="0 0 91 96" fill="none" xmlns="http://www.w3.org/2000/svg">
<rect width="90.7417" height="95.4352" rx="10" fill="#F8F8F8"/>
<path d="M45.2387 16.4274C44.1175 16.4274 43.023 16.8367 42.1799 17.6798L35.9223 24.0042C35.5842 24.1866 35.2994 24.4491 35.0903 24.7694L15.3453 44.5122C14.5354 45.3241 14.0806 46.4241 14.0806 47.571C14.0806 48.7178 14.5354 49.8178 15.3453 50.6297L42.1799 77.4643C42.9941 78.2699 44.0933 78.7218 45.2387 78.7218C46.384 78.7218 47.4832 78.2699 48.2974 77.4643L75.132 50.6297C75.9419 49.8178 76.3968 48.7178 76.3968 47.571C76.3968 46.4241 75.9419 45.3241 75.132 44.5122L48.2952 17.6776C47.894 17.2771 47.4171 16.9603 46.8924 16.7456C46.3677 16.531 45.8056 16.4228 45.2387 16.4274ZM45.2387 20.9454L71.8642 47.571L45.2387 74.1965L18.6131 47.571L37.0368 29.1495L40.9297 33.0425C40.8298 33.4281 40.7827 33.8254 40.7896 34.2237C40.7896 35.8654 41.6838 37.2736 43.0141 38.0477V57.0942C41.6838 57.8684 40.7896 59.2743 40.7896 60.9182C40.7896 62.0982 41.2583 63.2298 42.0927 64.0642C42.927 64.8985 44.0587 65.3673 45.2387 65.3673C46.4186 65.3673 47.5503 64.8985 48.3846 64.0642C49.219 63.2298 49.6877 62.0982 49.6877 60.9182C49.6877 59.2765 48.7935 57.8684 47.4632 57.0942V39.6471L54.277 46.4587C54.1067 47.1163 54.0894 47.8041 54.2263 48.4694C54.3632 49.1347 54.6507 49.7598 55.0667 50.2968C55.4827 50.8337 56.0162 51.2682 56.6263 51.5669C57.2363 51.8656 57.9067 52.0206 58.5859 52.02C59.7655 52.0194 60.8966 51.5504 61.7304 50.7161C62.5643 49.8818 63.0328 48.7505 63.0328 47.571C63.0337 46.8915 62.879 46.2209 62.5804 45.6106C62.2818 45.0003 61.8474 44.4665 61.3104 44.0502C60.7734 43.6339 60.1482 43.3462 59.4827 43.2092C58.8172 43.0722 58.1292 43.0895 57.4714 43.2598L49.5476 35.336C49.7178 34.6784 49.7352 33.9906 49.5983 33.3253C49.4614 32.66 49.1739 32.0348 48.7579 31.4979C48.3418 30.961 47.8083 30.5265 47.1983 30.2277C46.5883 29.929 45.9179 29.774 45.2387 29.7746C44.8411 29.7679 44.4445 29.8151 44.0597 29.9148L40.1667 26.0218L45.2387 20.9454Z" fill="#181818"/>
</svg>
