<svg width="92" height="96" viewBox="0 0 92 96" fill="none" xmlns="http://www.w3.org/2000/svg">
<rect x="0.356445" width="90.7417" height="95.4352" rx="10" fill="#F8F8F8"/>
<path d="M28.0046 24.5366C27.7499 24.5366 27.5056 24.6378 27.3255 24.8179C27.1454 24.998 27.0442 25.2423 27.0442 25.497V62.1846C27.0442 62.5303 27.2286 62.8453 27.5244 63.0182L46.1909 73.7825C46.3336 73.865 46.4951 73.9094 46.66 73.9114C46.8248 73.9135 46.9874 73.873 47.1321 73.794L66.8819 62.9721C67.0335 62.8892 67.1598 62.7669 67.2477 62.6182C67.3356 62.4694 67.3818 62.2997 67.3813 62.127V25.497C67.3813 25.2423 67.2801 24.998 67.1 24.8179C66.9199 24.6378 66.6756 24.5366 66.4209 24.5366H28.0046ZM21.2817 25.497C21.2817 21.786 24.2936 18.7742 28.0046 18.7742H66.4209C70.1319 18.7742 73.1437 21.786 73.1437 25.497V62.1308C73.1433 63.3359 72.8189 64.5187 72.2046 65.5554C71.5902 66.5922 70.7085 67.4447 69.6517 68.0239L49.9019 78.8457C48.8896 79.4013 47.7513 79.6868 46.5967 79.6747C45.4421 79.6626 44.31 79.3533 43.3096 78.7766L24.647 68.0085C23.624 67.4188 22.7744 66.57 22.1837 65.5477C21.5929 64.5253 21.2818 63.3654 21.2817 62.1846V25.497ZM35.6879 35.1011C35.6879 34.3369 35.9914 33.6041 36.5317 33.0638C37.0721 32.5234 37.8049 32.2199 38.5691 32.2199H56.2982C57.0623 32.2199 57.7952 32.5234 58.3355 33.0638C58.8759 33.6041 59.1794 34.3369 59.1794 35.1011C59.1794 35.8652 58.8759 36.5981 58.3355 37.1384C57.7952 37.6788 57.0623 37.9823 56.2982 37.9823H41.4503V44.5592H56.2982C57.0623 44.5592 57.7952 44.8627 58.3355 45.4031C58.8759 45.9434 59.1794 46.6763 59.1794 47.4404V58.5197C59.1798 59.0546 59.0312 59.5791 58.7503 60.0344C58.4694 60.4897 58.0673 60.8577 57.589 61.0974L48.7225 65.5306C48.3228 65.7302 47.8823 65.834 47.4356 65.834C46.9889 65.834 46.5483 65.7302 46.1486 65.5306L37.2821 61.0974C36.8037 60.8586 36.4012 60.4913 36.1197 60.0367C35.8381 59.5822 35.6886 59.0582 35.6879 58.5235V56.303C35.6879 55.5389 35.9914 54.8061 36.5317 54.2657C37.0721 53.7254 37.8049 53.4218 38.5691 53.4218C39.3332 53.4218 40.0661 53.7254 40.6064 54.2657C41.1467 54.8061 41.4503 55.5389 41.4503 56.303V56.741L47.4356 59.7336L53.417 56.7372V50.3216H38.5691C37.8049 50.3216 37.0721 50.0181 36.5317 49.4777C35.9914 48.9374 35.6879 48.2046 35.6879 47.4404V35.1011Z" fill="#181818"/>
</svg>
