<svg width="92" height="96" viewBox="0 0 92 96" fill="none" xmlns="http://www.w3.org/2000/svg">
<rect x="0.321777" width="90.7417" height="95.4352" rx="10" fill="#F8F8F8"/>
<path d="M31.6122 35.9839H40.9993V61.0161L34.7413 57.887M59.7734 35.9839H51.9509C51.536 35.9839 51.138 36.1487 50.8446 36.4421C50.5512 36.7355 50.3864 37.1334 50.3864 37.5484V46.9355C50.3864 47.3504 50.5512 47.7483 50.8446 48.0417C51.138 48.3351 51.536 48.5 51.9509 48.5H56.4035C56.6274 48.5 56.8488 48.5481 57.0525 48.641C57.2563 48.734 57.4377 48.8696 57.5845 49.0386C57.7313 49.2077 57.8402 49.4064 57.9036 49.6211C57.9671 49.8359 57.9837 50.0618 57.9524 50.2835L56.6444 59.4516L50.3864 61.0161M70.725 23.4678L64.467 68.8386L45.6928 75.0967L26.9187 68.8386L20.6606 23.4678H70.725Z" stroke="#181818" stroke-width="6.25805" stroke-linecap="round" stroke-linejoin="round"/>
</svg>
