<svg width="92" height="96" viewBox="0 0 92 96" fill="none" xmlns="http://www.w3.org/2000/svg">
<rect y="0.183838" width="91.4212" height="95.4352" rx="10" fill="#F8F8F8"/>
<path d="M45.3163 41.7061C41.7134 41.7061 38.7793 44.6184 38.7793 48.1945C38.7793 51.7706 41.7134 54.6829 45.3163 54.6829C48.9191 54.6829 51.8532 51.7706 51.8532 48.1945C51.8532 44.6184 48.9191 41.7061 45.3163 41.7061ZM27.0155 61.0894L25.5725 60.7348C14.8349 58.0339 8.66895 53.4643 8.66895 48.1831C8.66895 42.902 14.8371 38.3324 25.5725 35.6315L27.0155 35.2769L27.4209 36.6978C28.5102 40.4194 29.9028 44.0469 31.585 47.5443L31.8942 48.1831L31.585 48.8333C29.8993 52.3293 28.5066 55.957 27.4209 59.6799L27.0155 61.0894ZM24.906 38.9462C16.7451 41.2196 11.7359 44.7116 11.7359 48.1831C11.7359 51.6547 16.7474 55.133 24.906 57.4201C25.9061 54.266 27.1135 51.1804 28.5203 48.1831C27.1115 45.1867 25.9041 42.101 24.906 38.9462ZM63.617 61.0894L63.2116 59.6685C62.1242 55.9499 60.7315 52.326 59.0475 48.8333L58.7383 48.1831L59.0475 47.5329C60.7332 44.037 62.1259 40.4092 63.2116 36.6864L63.617 35.2769L65.06 35.6315C75.7977 38.3324 81.9636 42.902 81.9636 48.1831C81.9636 53.4643 75.7954 58.0339 65.06 60.7348L63.617 61.0894ZM62.1122 48.1831C63.5237 51.1784 64.7312 54.2644 65.7265 57.4201C73.8989 55.1353 78.8966 51.6547 78.8966 48.1831C78.8966 44.7116 73.8851 41.2333 65.7265 38.9462C64.724 42.0994 63.5167 45.1849 62.1122 48.1831ZM24.8808 38.9348L24.4754 37.5139C21.4566 26.9516 22.375 19.3742 26.9926 16.7325C31.5254 14.1385 38.7907 17.2054 46.4134 24.9737L47.451 26.0285L46.4134 27.0834C43.7064 29.8789 41.233 32.8882 39.0175 36.0817L38.6006 36.6614L37.8837 36.7205C33.9865 37.0258 30.1205 37.6439 26.3238 38.5688L24.8808 38.9348ZM30.6779 18.8422C29.8557 18.8422 29.1273 19.0082 28.518 19.3628C25.4878 21.1043 24.9518 27.1425 27.0384 35.2882C30.2942 34.5654 33.5942 34.055 36.9171 33.7605C38.8303 31.056 40.9222 28.4806 43.1793 26.0513C38.4197 21.4453 33.9098 18.8422 30.6779 18.8422ZM59.966 80.5545C59.9546 80.5545 59.9546 80.5545 59.966 80.5545C55.6119 80.5545 50.0163 77.3103 44.2191 71.3903L43.1815 70.3355L44.2191 69.2806C46.9261 66.4851 49.3995 63.4758 51.615 60.2823L52.0204 59.7026L52.7373 59.6321C56.6396 59.3371 60.5102 58.7188 64.3087 57.7838L65.7517 57.4292L66.1571 58.8501C69.1759 69.4124 68.2575 76.9784 63.6399 79.6179C62.5235 80.2547 61.2534 80.58 59.966 80.5545ZM47.451 70.3127C52.2105 74.9187 56.7204 77.524 59.9523 77.524H59.9637C60.7745 77.524 61.5029 77.3467 62.1122 77.0034C65.1424 75.262 65.6922 69.2238 63.5918 61.078C60.3367 61.8017 57.0364 62.3083 53.7131 62.5944C51.8001 65.3026 49.7081 67.8795 47.451 70.3127ZM65.7517 38.9348L64.3087 38.5688C60.5075 37.647 56.638 37.0289 52.7373 36.7205L52.0204 36.6614L51.615 36.0817C49.3995 32.8882 46.9261 29.8789 44.2191 27.0834L43.1815 26.0285L44.2191 24.9737C51.8418 17.2054 59.1071 14.1385 63.6399 16.7325C68.2575 19.3719 69.1759 26.9516 66.1571 37.5139L65.7517 38.9348ZM53.7154 33.7605C57.0385 34.0542 60.3385 34.5646 63.5941 35.2882C65.6944 27.1425 65.1447 21.102 62.1145 19.3628C59.0956 17.635 53.4176 20.2859 47.4533 26.0535C49.7042 28.4881 51.7958 31.0631 53.7154 33.7628V33.7605ZM30.6779 80.5545C29.3884 80.5773 28.1126 80.259 26.9926 79.6202C22.375 76.9807 21.4566 69.4124 24.4754 58.8524L24.8808 57.4315L26.3238 57.7861C29.8557 58.675 33.7449 59.2889 37.8837 59.6344L38.6006 59.7049L39.006 60.2846C41.2215 63.4781 43.695 66.4874 46.4019 69.2829L47.4395 70.3377L46.4019 71.3926C40.6162 77.3126 35.0207 80.5568 30.6779 80.5568V80.5545ZM27.0407 61.078C24.9403 69.2238 25.4901 75.2643 28.5203 77.0034C31.5392 78.7085 37.2057 76.0804 43.1815 70.3127C40.9244 67.8795 38.8325 65.3003 36.9194 62.5921C33.596 62.3068 30.2957 61.8025 27.0407 61.078ZM45.3163 62.9832C42.799 62.9832 40.2223 62.8763 37.6341 62.6626L36.9171 62.6035L36.5003 62.0124C35.0383 59.9274 33.6651 57.7824 32.3843 55.5832C31.1009 53.3838 29.9111 51.1319 28.8181 48.8333L28.5089 48.1831L28.8181 47.5329C31.0078 42.9369 33.5774 38.5288 36.5003 34.3538L36.9171 33.7628L37.6341 33.7036C42.7465 33.2762 47.886 33.2762 52.9984 33.7036L53.7154 33.7628L54.1322 34.3538C57.0589 38.5264 59.6286 42.9349 61.8144 47.5329L62.1236 48.1831L61.8144 48.8333C59.633 53.4337 57.0631 57.8425 54.1322 62.0124L53.7154 62.6035L52.9984 62.6626C50.4433 62.8749 47.8803 62.9818 45.3163 62.9832ZM38.6121 59.6912C43.122 60.0345 47.5105 60.0345 52.0319 59.6912C54.5535 56.0263 56.7945 52.1787 58.736 48.1809C56.8027 44.1765 54.5573 40.328 52.0204 36.6705C47.5577 36.3272 43.0748 36.3272 38.6121 36.6705C36.0734 40.3268 33.8279 44.1755 31.8965 48.1809C33.8386 52.1807 36.0836 56.0285 38.6121 59.6912Z" fill="#181818"/>
</svg>
