<svg width="92" height="96" viewBox="0 0 92 96" fill="none" xmlns="http://www.w3.org/2000/svg">
<rect x="0.560547" y="0.183838" width="91.4212" height="95.4352" rx="10" fill="#F8F8F8"/>
<path d="M70.0191 51.5315L70.2879 51.5275C71.9859 51.5275 73.5924 51.9195 75.0176 52.6188L74.9544 52.5905C76.2224 53.1984 77.305 54.1293 78.0919 55.2883L78.1103 55.3166C78.7952 56.3142 79.134 57.506 79.0753 58.7117V58.6996C79.0466 59.2567 78.906 59.8025 78.662 60.3049C78.418 60.8074 78.0753 61.2565 77.6542 61.6258L77.6501 61.6299C77.1956 62.0729 76.6506 62.414 76.0519 62.6302L76.0213 62.6403C75.682 62.7077 75.4953 62.6572 75.4614 62.4888C75.4275 62.3204 75.5802 62.1351 75.9195 61.933C76.8398 61.3793 77.5056 60.4861 77.7479 59.4332L77.754 59.4069C77.8067 58.7051 77.6659 58.0023 77.3468 57.3739L77.3569 57.3961C76.9297 56.5025 76.2688 55.7391 75.4431 55.1853L75.4227 55.1732C74.1468 54.365 72.6905 53.8799 71.1817 53.7606L71.1491 53.7585C68.9883 53.4534 66.7847 53.7075 64.752 54.4962L64.8375 54.4659C65.1327 55.1509 65.318 55.9451 65.3444 56.7777V56.7878C65.3296 57.599 65.1081 58.3933 64.7004 59.0965C64.2928 59.7997 63.7123 60.389 63.0132 60.8094L62.9908 60.8215C62.3596 61.2661 61.6389 61.6562 60.8713 61.9593L60.8 61.9835C60.2433 62.2497 59.6273 62.3707 59.0104 62.3352H59.0206C57.7324 62.0671 57.427 60.9556 58.1044 59.0007C58.3996 58.1499 58.8129 57.4123 59.3362 56.7636L59.3239 56.7777C59.9938 55.9088 60.7288 55.1469 61.5412 54.4719L61.5636 54.4537L61.364 54.1587C60.9686 53.4805 60.6374 52.7675 60.3745 52.0287L60.346 51.9357C60.1424 51.2621 59.9727 50.6228 59.837 50.0179L59.7352 49.3106L58.7172 51.2284C57.8349 52.8451 56.9866 54.259 56.1722 55.4702L55.8668 55.9755C56.2088 56.8 56.4613 57.7559 56.5753 58.7542L56.5794 58.8047C56.6358 59.5839 56.4889 60.3645 56.153 61.071C55.817 61.7775 55.3033 62.3862 54.6615 62.8384L54.6472 62.8485C54.0299 63.2225 53.3908 63.5599 52.7333 63.8589L52.6112 63.9094C51.8424 64.2358 51.0214 64.424 50.1863 64.4652H50.168C49.6004 64.5043 49.0323 64.3971 48.5188 64.154L48.5392 64.1621C48.3374 63.9919 48.1983 63.7601 48.1434 63.5031C48.0885 63.246 48.121 62.9781 48.2358 62.7414L48.2317 62.7495C49.0461 61.6157 49.8483 60.6295 50.7014 59.6878L50.6749 59.7181L52.9146 56.8909L52.5094 55.9815C52.1577 55.3327 51.8608 54.6561 51.6217 53.9586L51.5932 53.8616C51.3896 53.188 51.2199 52.5487 51.0842 51.9438L50.9824 51.2365L49.9644 53.6615C49.1513 55.5464 48.4048 57.1624 47.7247 58.5096C46.7108 60.5305 45.8625 62.0799 45.1797 63.1577L44.9761 63.4608C44.1631 64.7393 43.3826 65.3786 42.6347 65.3786C41.8868 65.3786 41.3798 64.9071 41.1138 63.964C40.9065 63.2086 40.8024 62.429 40.8043 61.6461L40.8064 61.4278V61.4379L41.01 60.0233V60.1243C40.467 61.4029 39.9241 62.581 39.3811 63.6589C39.0506 64.3078 38.6672 64.9289 38.2349 65.516L38.2613 65.4776C37.8419 65.9142 37.2515 66.185 36.5979 66.185H36.5816C36.5389 66.189 36.49 66.189 36.4411 66.189C35.9467 66.1895 35.4698 66.0072 35.1035 65.6777L35.1055 65.6797C34.3832 64.944 33.863 64.0367 33.5948 63.0445L33.5846 63.0021C33.1846 61.875 33.0096 60.6813 33.0695 59.4877V59.508C33.2303 57.8993 33.5541 56.4261 34.0285 55.0216L33.9857 55.1651L30.3229 57.287V57.3881C30.991 58.7815 31.2715 60.327 31.1353 61.8643L31.1373 61.832C31.0387 63.8304 30.3963 65.7649 29.2784 67.4298L29.3049 67.3894C28.1871 69.1644 26.5405 70.5501 24.5935 71.3544L24.5264 71.3786C23.356 71.8915 22.09 72.1545 20.8106 72.1506C19.9596 72.1506 19.1329 72.0374 18.3511 71.8232L18.4163 71.8374C17.7845 71.6291 17.2482 71.2043 16.9035 70.639L16.8974 70.6269C16.4041 69.9119 16.1201 69.0753 16.0769 68.2099V68.1978C15.9481 66.9712 16.166 65.7334 16.706 64.6228L16.6877 64.6632C17.8278 62.7191 19.4514 61.0979 21.4031 59.9546L21.4642 59.9222C22.9206 58.9284 24.4498 58.0442 26.0391 57.2769L26.2549 57.1819L26.7639 56.8788C26.1531 56.4072 25.0333 55.5989 23.4045 54.4537C21.3504 53.0956 19.3951 51.5958 17.553 49.9653L17.6039 50.0098C15.8582 48.5254 14.6197 46.5398 14.0592 44.3271L14.0429 44.2503C13.8086 42.8168 14.0653 41.3468 14.7718 40.0751L14.7555 40.1095C15.8458 37.7563 17.4347 35.6642 19.4139 33.9761L19.4384 33.9559C21.5566 31.9714 23.926 30.269 26.487 28.8916L26.6642 28.8047C29.1505 27.3974 31.7597 26.2157 34.4601 25.2742L34.8062 25.1691C37.6127 24.1706 40.5716 23.6599 43.5529 23.6595H43.557C46.159 23.578 48.7416 24.1289 51.0801 25.2641L50.9864 25.2216C52.8189 26.0502 54.1911 27.6103 54.7409 29.518L54.7531 29.5665C55.2305 31.489 55.0618 33.5137 54.2726 35.3321L54.295 35.2735C53.467 37.2917 52.2204 39.1143 50.6362 40.6228L50.6301 40.6289C49.0484 42.1855 47.1661 43.4091 45.0962 44.226L44.9843 44.2644C42.6408 45.2464 40.1358 45.7936 37.5935 45.8791L37.5548 45.8811C35.9527 46.0523 34.3324 45.908 32.7865 45.4568L32.874 45.479C31.933 45.1861 31.0635 44.7024 30.3209 44.0583L30.329 44.0644C29.826 43.6591 29.414 43.1538 29.1196 42.581L29.1074 42.5548C28.9038 42.0159 28.8868 41.6959 29.0565 41.5948C29.2262 41.4938 29.3449 41.477 29.4128 41.5443L29.9218 42.0495C30.4899 42.573 31.1678 42.9852 31.9171 43.2479L31.9578 43.26C32.988 43.6157 34.1771 43.8219 35.4129 43.8219C35.81 43.8219 36.2009 43.8016 36.5857 43.7592L36.5389 43.7633C39.692 43.4054 42.7161 42.3164 45.367 40.5844L45.2917 40.6309C47.4211 39.3825 49.1947 37.6158 50.4449 35.4978L50.4815 35.4291C51.0944 34.5359 51.4608 33.4325 51.4608 32.2442C51.4608 31.5147 51.3224 30.8154 51.0699 30.1728L51.0842 30.2112C50.7068 29.6136 50.2058 29.1024 49.6144 28.7115C49.0229 28.3206 48.3545 28.0589 47.6535 27.9438L47.625 27.9397C45.3874 27.4157 43.0632 27.3696 40.8064 27.8043L40.9082 27.7882C37.6561 28.3557 34.5085 29.4055 31.571 30.9023L31.7563 30.8154C23.4113 34.9919 19.1024 39.2688 18.8296 43.646V43.7451C18.8296 45.5093 19.5279 47.1119 20.6661 48.2961L20.664 48.2941C21.9473 49.7129 23.3885 50.9827 24.96 52.0792L25.0394 52.1317C26.4103 53.1443 27.7021 54.2583 28.9038 55.4642L28.9058 55.4682L29.1094 55.6703L35.6247 52.1358C36.348 51.0905 37.2492 50.1783 38.2878 49.4399L38.3204 49.4177C39.1348 48.7387 40.1691 48.2961 41.3031 48.2072L41.3215 48.2052C41.3622 48.2011 41.409 48.2011 41.4579 48.2011C42.2173 48.2011 42.8688 48.6558 43.1498 49.3065L43.1539 49.3187C43.4523 49.9912 43.5573 50.7326 43.4573 51.4608L43.4593 51.4406L43.2618 52.4369L43.5672 52.2348C43.7478 52.0986 43.9619 52.0131 44.1872 51.9872C44.4125 51.9612 44.6406 51.9958 44.8479 52.0873L44.8397 52.0832C45.0673 52.141 45.2629 52.2853 45.3844 52.4848C45.5059 52.6844 45.5435 52.9234 45.4892 53.1503L45.4912 53.1442L45.1858 54.2557C44.575 56.6794 44.1685 58.4302 43.9663 59.508C43.8354 59.971 43.7845 60.4527 43.8156 60.9327V60.9206C43.8495 61.3247 43.9004 61.5268 43.9683 61.5268C44.0362 61.5268 44.1712 61.3247 44.3735 60.9206L44.6789 60.2132C44.7467 60.2132 44.7467 60.2469 44.6789 60.3143L45.7987 57.9903C48.4455 52.1998 49.87 48.9664 50.0723 48.29L50.6831 46.3722C50.7509 46.2375 51.0224 46.1034 51.4975 45.9701C52.0659 45.8214 52.6527 45.7534 53.2403 45.768H53.2342C54.1843 45.768 54.6594 46.0037 54.6594 46.4753L54.5576 46.9805C54.3005 47.6985 54.0903 48.4323 53.9285 49.1772L53.9061 49.3045C53.8036 49.9889 53.8222 50.6858 53.9611 51.3638L53.955 51.3254L54.0568 51.7276C54.2644 52.5703 54.58 53.3099 54.9933 53.9849L54.973 53.9505C55.786 52.6046 56.5665 51.2244 57.3144 49.8097C57.9048 48.8336 58.4546 47.702 58.8964 46.5177L58.9432 46.3763C59.0959 45.6144 59.271 44.9717 59.4848 44.3453L59.4522 44.4584C59.5201 44.2563 59.8099 44.1048 60.3216 44.0037C60.8062 43.9067 61.362 43.8522 61.93 43.8522H62.0033H61.9993C62.9494 43.8522 63.4564 44.0879 63.5202 44.5595L63.3166 44.9616C63.0743 45.6407 62.8625 46.4571 62.72 47.2958L62.7078 47.3867C62.644 48.0768 62.6811 48.7724 62.8177 49.452L62.8096 49.4056V49.8077C63.0437 50.6888 63.3919 51.4628 63.848 52.1641L63.8276 52.1317L64.133 52.839C65.9448 51.9683 67.9328 51.519 69.9458 51.5255H70.0252H70.0212L70.0191 51.5315ZM26.369 66.189C27.839 64.6847 28.66 62.6707 28.6574 60.575C28.658 59.7547 28.533 58.9391 28.2869 58.156L28.3032 58.2126L26.6744 59.223C25.013 60.1627 23.5755 61.2116 22.2745 62.4039L22.2908 62.3897C21.2909 63.3 20.5715 64.473 20.2161 65.7727L20.2039 65.8232C19.8985 67.0694 20.0512 67.8778 20.662 68.2483C21.0346 68.418 21.4723 68.5171 21.9304 68.5171C22.4313 68.5171 22.9057 68.3998 23.3231 68.1897L23.3047 68.1978C24.4711 67.782 25.5174 67.0897 26.3527 66.1809L26.3588 66.1749L26.369 66.189ZM40.0042 56.8848C40.3435 56.0091 40.7168 54.965 41.124 53.7525C41.6669 52.1358 41.8535 51.1934 41.6839 50.9253C41.5142 50.6572 41.1918 50.6235 40.7168 50.8242C40.1682 51.0856 39.6839 51.4629 39.2977 51.9296L39.2916 51.9377C38.853 52.4908 38.4569 53.0758 38.1066 53.6878L38.0699 53.7565C37.6392 54.4621 37.3025 55.2202 37.0682 56.0118L37.0499 56.0805C36.5756 57.3813 36.3686 58.7631 36.4411 60.1445V60.1203C36.509 61.4662 36.7262 62.1903 37.0927 62.2927C37.4591 62.3951 37.8833 61.9067 38.3652 60.8276C38.8314 59.993 39.2468 59.0229 39.5562 58.0064L39.5847 57.8973C39.787 57.4204 39.9254 57.0829 40.0001 56.8848H40.0042ZM51.2959 62.2402C51.9974 61.9322 52.6032 61.4435 53.0503 60.8249C53.4975 60.2062 53.7697 59.4801 53.8389 58.7218L53.8409 58.7057V58.6046L52.7211 60.0192L50.6871 62.2422C50.6715 62.2541 50.6588 62.2694 50.65 62.2869C50.6412 62.3044 50.6365 62.3237 50.6362 62.3433C50.6362 62.3837 50.6566 62.42 50.6851 62.4443C50.7503 62.5103 50.9539 62.443 51.2959 62.2422V62.2402ZM60.0488 60.3204C60.8092 60.1083 61.4792 59.6557 61.9569 59.0312C62.4347 58.4068 62.694 57.6447 62.6956 56.8606V56.7818V56.7858C62.6752 56.3816 62.6019 56.0017 62.4818 55.642L62.4899 55.6723C61.6979 56.3715 61.0484 57.2082 60.5781 58.1519L60.5557 58.1984C59.9436 59.4096 59.7725 60.1156 60.0426 60.3163L60.0488 60.3204Z" fill="#181818"/>
</svg>
