<svg width="91" height="96" viewBox="0 0 91 96" fill="none" xmlns="http://www.w3.org/2000/svg">
<rect width="90.7417" height="95.4352" rx="10" fill="#F8F8F8"/>
<path d="M17.6782 26.3425C17.6782 22.9615 20.4222 20.2175 23.8032 20.2175H67.5532C70.9342 20.2175 73.6782 22.9615 73.6782 26.3425V33.3425C73.6782 34.0387 73.4017 34.7064 72.9094 35.1987C72.4171 35.691 71.7494 35.9675 71.0532 35.9675C70.357 35.9675 69.6894 35.691 69.1971 35.1987C68.7048 34.7064 68.4282 34.0387 68.4282 33.3425V26.3425C68.4282 26.1105 68.336 25.8879 68.1719 25.7238C68.0078 25.5597 67.7853 25.4675 67.5532 25.4675H23.8032C23.5712 25.4675 23.3486 25.5597 23.1845 25.7238C23.0204 25.8879 22.9282 26.1105 22.9282 26.3425V70.0925C22.9282 70.5755 23.3202 70.9675 23.8032 70.9675H71.0532C71.7494 70.9675 72.4171 71.2441 72.9094 71.7364C73.4017 72.2287 73.6782 72.8963 73.6782 73.5925C73.6782 74.2887 73.4017 74.9564 72.9094 75.4487C72.4171 75.941 71.7494 76.2175 71.0532 76.2175H23.8032C22.1788 76.2175 20.6209 75.5722 19.4722 74.4236C18.3235 73.2749 17.6782 71.717 17.6782 70.0925V26.3425ZM34.3032 42.9675C34.3032 42.2713 34.5798 41.6037 35.0721 41.1114C35.5644 40.6191 36.232 40.3425 36.9282 40.3425H50.0532C50.7494 40.3425 51.4171 40.6191 51.9094 41.1114C52.4017 41.6037 52.6782 42.2713 52.6782 42.9675C52.6782 43.6637 52.4017 44.3314 51.9094 44.8237C51.4171 45.316 50.7494 45.5925 50.0532 45.5925H46.5532V63.9675C46.5532 64.6637 46.2767 65.3314 45.7844 65.8237C45.2921 66.316 44.6244 66.5925 43.9282 66.5925C43.232 66.5925 42.5644 66.316 42.0721 65.8237C41.5798 65.3314 41.3032 64.6637 41.3032 63.9675V45.5925H36.9282C36.232 45.5925 35.5644 45.316 35.0721 44.8237C34.5798 44.3314 34.3032 43.6637 34.3032 42.9675ZM57.1442 43.2475C58.6072 41.5045 60.9067 40.3425 64.0532 40.3425C66.9757 40.3425 69.1807 41.3435 70.6682 42.915C71.1292 43.4239 71.3724 44.0931 71.3457 44.7792C71.3191 45.4653 71.0247 46.1137 70.5256 46.5852C70.0266 47.0568 69.3626 47.3141 68.6761 47.3019C67.9896 47.2897 67.3352 47.009 66.8532 46.52C66.4682 46.114 65.6982 45.5925 64.0532 45.5925C62.3032 45.5925 61.5332 46.1805 61.1622 46.625C60.7916 47.0756 60.5778 47.6346 60.5532 48.2175C60.5532 48.5815 60.7037 49.2675 61.1622 49.81C61.5367 50.2545 62.2997 50.8425 64.0532 50.8425C64.3192 50.8425 64.5747 50.881 64.8162 50.9545C67.1367 51.2835 68.8902 52.3195 70.0872 53.7475C71.4662 55.3925 71.9282 57.3315 71.9282 58.7175C71.9282 60.1035 71.4662 62.0425 70.0872 63.6875C68.6242 65.4305 66.3247 66.5925 63.1782 66.5925C60.2557 66.5925 58.0507 65.5915 56.5632 64.02C56.1023 63.5112 55.8591 62.8419 55.8857 62.1558C55.9124 61.4697 56.2068 60.8214 56.7058 60.3498C57.2049 59.8783 57.8688 59.621 58.5553 59.6332C59.2418 59.6454 59.8962 59.926 60.3782 60.415C60.7632 60.821 61.5332 61.3425 63.1782 61.3425C64.9282 61.3425 65.6982 60.7545 66.0692 60.31C66.4399 59.8595 66.6537 59.3004 66.6782 58.7175C66.6782 58.3535 66.5277 57.6675 66.0692 57.125C65.6947 56.6805 64.9317 56.0925 63.1782 56.0925C62.9198 56.0931 62.6626 56.0553 62.4152 55.9805C60.0947 55.648 58.3412 54.6155 57.1442 53.1875C55.978 51.7914 55.328 50.0365 55.3032 48.2175C55.3032 46.8315 55.7652 44.8925 57.1442 43.2475Z" fill="#181818"/>
</svg>
