<svg width="25" height="24" viewBox="0 0 25 24" fill="none" xmlns="http://www.w3.org/2000/svg">
<path d="M21.708 14.8545C21.7477 14.7744 21.7683 14.6862 21.768 14.5969C21.7677 14.5075 21.7466 14.4195 21.7064 14.3397L20.9637 13.2574C20.9497 13.2372 20.942 13.214 20.942 13.1876C20.942 13.1612 20.9497 13.138 20.9637 13.1178L21.708 12.0324C21.7477 11.9524 21.7683 11.8642 21.768 11.7748C21.7677 11.6855 21.7466 11.5974 21.7064 11.5176C21.6756 11.4336 21.6269 11.3572 21.5637 11.2938C21.5005 11.2304 21.4244 11.1814 21.3405 11.1501L20.0644 10.6834C20.0408 10.6754 20.0198 10.6613 20.0034 10.6425C19.9871 10.6237 19.976 10.6009 19.9713 10.5764V9.27241C19.9664 9.18015 19.9402 9.09028 19.8947 9.00985C19.8493 8.92941 19.7858 8.8606 19.7093 8.80879C19.6038 8.73667 19.4789 8.69828 19.3511 8.6987H19.0875L17.7695 9.03982C17.7342 9.05405 17.6948 9.05405 17.6594 9.03982L16.8082 8.03195C16.746 7.96438 16.6705 7.91044 16.5864 7.87354C16.5024 7.83665 16.4116 7.8176 16.3197 7.8176C16.2279 7.8176 16.1371 7.83665 16.053 7.87354C15.969 7.91044 15.8935 7.96438 15.8313 8.03195L14.9785 9.03982C14.9432 9.05405 14.9037 9.05405 14.8684 9.03982H14.87L13.4745 8.68319H13.307C13.1778 8.6828 13.0514 8.72115 12.9442 8.79328C12.8683 8.84527 12.8054 8.91395 12.7602 8.99406C12.7151 9.07416 12.6889 9.16354 12.6837 9.25535V10.5594C12.6792 10.5839 12.6684 10.6068 12.6524 10.6258C12.6363 10.6449 12.6156 10.6594 12.5922 10.6679L11.3192 11.1331C11.1736 11.1569 11.0411 11.2314 10.9451 11.3435C10.8492 11.4556 10.7961 11.598 10.7951 11.7456C10.7951 11.8386 10.8168 11.927 10.8555 12.0045L11.5983 13.0868C11.6122 13.107 11.62 13.1302 11.62 13.1566C11.62 13.1829 11.6122 13.2062 11.5983 13.2264L10.854 14.3118C10.8142 14.3918 10.7937 14.48 10.794 14.5693C10.7942 14.6587 10.8153 14.7468 10.8555 14.8265C10.8864 14.9106 10.9351 14.9869 10.9983 15.0504C11.0614 15.1138 11.1376 15.1628 11.2215 15.194L12.4976 15.6608C12.5212 15.6688 12.5422 15.6829 12.5585 15.7017C12.5749 15.7205 12.5859 15.7433 12.5906 15.7677V17.0718C12.5956 17.164 12.6218 17.2539 12.6672 17.3343C12.7127 17.4148 12.7762 17.4836 12.8527 17.5354C12.9599 17.6075 13.0863 17.6459 13.2155 17.6455H13.476L13.9567 17.5369V23.2585L16.3291 20.1574L18.6084 23.2585V17.5369L19.0891 17.661H19.272C19.4013 17.6614 19.5276 17.623 19.6349 17.5509C19.7107 17.4989 19.7736 17.4302 19.8188 17.3501C19.8639 17.27 19.8901 17.1806 19.8954 17.0888V15.7848C19.8998 15.7603 19.9106 15.7374 19.9266 15.7183C19.9427 15.6993 19.9634 15.6848 19.9868 15.6763L21.2599 15.2111C21.357 15.1919 21.4483 15.15 21.5261 15.0889C21.604 15.0277 21.6663 14.949 21.708 14.8591V14.8545Z" fill="#F8F8F8"/>
<path d="M0 0V18.6068H12.4046L12.234 18.5293C12.0132 18.3781 11.8299 18.1783 11.6982 17.9453C11.5665 17.7122 11.4899 17.4522 11.4742 17.185V17.0563H1.55057V1.55057H23.2585V17.0563H21.0412V17.1803C21.0262 17.4472 20.9505 17.7071 20.8199 17.9403C20.6893 18.1735 20.5073 18.3739 20.2877 18.5262L20.1574 18.6068H24.8091V0H0Z" fill="#F8F8F8"/>
<path d="M11.5207 9.16387C11.5258 8.88627 11.5968 8.61385 11.7278 8.36907C11.8588 8.12428 12.0461 7.91413 12.2743 7.75595C12.3174 7.74464 12.3625 7.74358 12.4061 7.75285H4.65171V9.30342H11.5207V9.16387ZM9.95466 10.854H4.65171V12.4046H9.86162C9.75486 12.2069 9.69298 11.9881 9.68039 11.7638C9.66779 11.5395 9.70479 11.3151 9.78875 11.1067C9.81346 11.006 9.87203 10.9167 9.95466 10.854ZM4.65171 4.65171H20.1574V6.20228H4.65171V4.65171Z" fill="#F8F8F8"/>
</svg>
