<svg width="26" height="26" viewBox="0 0 26 26" fill="none" xmlns="http://www.w3.org/2000/svg">
<path d="M10.281 13.7744C10.7827 14.4451 11.4229 15.0002 12.158 15.4018C12.8931 15.8034 13.706 16.0423 14.5416 16.1021C15.3771 16.162 16.2158 16.0414 17.0006 15.7486C17.7855 15.4559 18.4982 14.9977 19.0904 14.4053L22.5955 10.9002C23.6596 9.79841 24.2484 8.32275 24.2351 6.79105C24.2218 5.25935 23.6075 3.79415 22.5243 2.71103C21.4412 1.62791 19.976 1.01353 18.4443 1.00022C16.9126 0.986911 15.4369 1.57573 14.3352 2.63987L12.3256 4.63776M14.9544 11.4376C14.4526 10.7668 13.8125 10.2118 13.0774 9.81018C12.3422 9.40854 11.5293 9.16971 10.6938 9.10987C9.85825 9.05003 9.01961 9.17058 8.23475 9.46336C7.44989 9.75613 6.73718 10.2143 6.14495 10.8067L2.63987 14.3118C1.57573 15.4136 0.986911 16.8892 1.00022 18.4209C1.01353 19.9526 1.62791 21.4178 2.71103 22.501C3.79415 23.5841 5.25935 24.1985 6.79105 24.2118C8.32275 24.2251 9.79841 23.6363 10.9002 22.5721L12.8981 20.5742" stroke="#FE912C" stroke-width="1.63571" stroke-linecap="round" stroke-linejoin="round"/>
</svg>
