<svg width="23" height="23" viewBox="0 0 23 23" fill="none" xmlns="http://www.w3.org/2000/svg">
<path d="M14.0556 0V2.55556H18.6428L6.08222 15.1161L7.88389 16.9178L20.4444 4.35722V8.94444H23V0M20.4444 20.4444H2.55556V2.55556H11.5V0H2.55556C1.87778 0 1.22776 0.269245 0.748505 0.748505C0.269245 1.22776 0 1.87778 0 2.55556V20.4444C0 21.1222 0.269245 21.7722 0.748505 22.2515C1.22776 22.7308 1.87778 23 2.55556 23H20.4444C21.1222 23 21.7722 22.7308 22.2515 22.2515C22.7308 21.7722 23 21.1222 23 20.4444V11.5H20.4444V20.4444Z" fill="#F8F8F8"/>
</svg>
