<svg width="44" height="40" viewBox="0 0 44 40" fill="none" xmlns="http://www.w3.org/2000/svg">
<path d="M39.3636 27.5545H3.93636V3.93636H39.3636M39.3636 0H3.93636C1.75168 0 0 1.75168 0 3.93636V27.5545C0 28.5985 0.414723 29.5998 1.15293 30.338C1.89115 31.0762 2.89237 31.4909 3.93636 31.4909H17.7136V35.4273H13.7773V39.3636H29.5227V35.4273H25.5864V31.4909H39.3636C40.4076 31.4909 41.4089 31.0762 42.1471 30.338C42.8853 29.5998 43.3 28.5985 43.3 27.5545V3.93636C43.3 2.89237 42.8853 1.89115 42.1471 1.15293C41.4089 0.414723 40.4076 0 39.3636 0Z" fill="#E97000"/>
</svg>
