<svg width="19" height="30" viewBox="0 0 19 30" fill="none" xmlns="http://www.w3.org/2000/svg">
<path d="M14.8 1.85C15.2907 1.85 15.7612 2.04491 16.1081 2.39185C16.4551 2.73879 16.65 3.20935 16.65 3.7V25.9C16.65 26.3906 16.4551 26.8612 16.1081 27.2081C15.7612 27.5551 15.2907 27.75 14.8 27.75H3.7C3.20935 27.75 2.7388 27.5551 2.39185 27.2081C2.04491 26.8612 1.85 26.3906 1.85 25.9V3.7C1.85 3.20935 2.04491 2.73879 2.39185 2.39185C2.7388 2.04491 3.20935 1.85 3.7 1.85H14.8ZM3.7 0C2.7187 0 1.77759 0.38982 1.0837 1.0837C0.38982 1.77759 0 2.7187 0 3.7V25.9C0 26.8813 0.38982 27.8224 1.0837 28.5163C1.77759 29.2102 2.7187 29.6 3.7 29.6H14.8C15.7813 29.6 16.7224 29.2102 17.4163 28.5163C18.1102 27.8224 18.5 26.8813 18.5 25.9V3.7C18.5 2.7187 18.1102 1.77759 17.4163 1.0837C16.7224 0.38982 15.7813 0 14.8 0H3.7Z" fill="#E97000"/>
<path d="M9.25 25.9C9.74065 25.9 10.2112 25.7051 10.5581 25.3581C10.9051 25.0112 11.1 24.5406 11.1 24.05C11.1 23.5593 10.9051 23.0888 10.5581 22.7419C10.2112 22.3949 9.74065 22.2 9.25 22.2C8.75935 22.2 8.2888 22.3949 7.94185 22.7419C7.59491 23.0888 7.4 23.5593 7.4 24.05C7.4 24.5406 7.59491 25.0112 7.94185 25.3581C8.2888 25.7051 8.75935 25.9 9.25 25.9Z" fill="#E97000"/>
</svg>
