<svg width="42" height="42" viewBox="0 0 42 42" fill="none" xmlns="http://www.w3.org/2000/svg">
<path fill-rule="evenodd" clip-rule="evenodd" d="M21 2.93024C11.0235 2.93024 2.93024 11.0392 2.93024 21.0508C2.93024 30.3533 9.92178 38.0169 18.9156 39.0522C19.8182 39.1558 20.7851 38.7787 21.5587 38.0032C21.8987 37.6626 22.0896 37.201 22.0896 36.7198C22.0896 36.2385 21.8987 35.7769 21.5587 35.4363C20.9492 34.8268 20.3378 34.0103 20.0037 33.0863C19.6619 32.1388 19.5759 30.9492 20.2714 29.8435C20.9023 28.8413 21.8478 28.3041 22.8402 28.0424C23.7974 27.7923 24.8543 27.7767 25.872 27.8392C26.9425 27.9173 28.0098 28.034 29.0718 28.1889C30.1599 28.3295 31.2207 28.4604 32.2482 28.5092C34.3463 28.6089 35.9638 28.3451 37.0675 27.4426C38.1263 26.5772 39.0698 24.823 39.0698 21.0508C39.0698 11.0392 30.9765 2.93024 21 2.93024ZM0 21.0508C0 9.42755 9.39824 0 21 0C32.6018 0 42 9.42755 42 21.0508C42 25.2411 40.951 28.0521 38.9233 29.7106C36.9425 31.3301 34.3795 31.545 32.1076 31.4356C30.8904 31.3637 29.6768 31.2399 28.4702 31.0644C27.4544 30.9335 26.5362 30.8144 25.6962 30.7636C24.7839 30.7089 24.0924 30.744 23.5864 30.8769C23.1176 30.9999 22.891 31.1836 22.7523 31.4043C22.6761 31.5254 22.6234 31.713 22.7601 32.09C22.9047 32.4924 23.2211 32.9534 23.6333 33.3676C24.5208 34.2574 25.0193 35.463 25.0193 36.7198C25.0193 37.9766 24.5208 39.1821 23.6333 40.072C22.3636 41.3456 20.5468 42.1895 18.5796 41.9629C8.11871 40.7596 0 31.8536 0 21.0508ZM16.2823 9.76745C15.8938 9.76745 15.5211 9.92181 15.2463 10.1966C14.9716 10.4713 14.8172 10.844 14.8172 11.2326C14.8172 11.6211 14.9716 11.9938 15.2463 12.2686C15.5211 12.5433 15.8938 12.6977 16.2823 12.6977C16.6709 12.6977 17.0436 12.5433 17.3183 12.2686C17.5931 11.9938 17.7475 11.6211 17.7475 11.2326C17.7475 10.844 17.5931 10.4713 17.3183 10.1966C17.0436 9.92181 16.6709 9.76745 16.2823 9.76745ZM11.887 11.2326C11.887 10.0669 12.3501 8.94888 13.1744 8.12459C13.9986 7.3003 15.1166 6.83722 16.2823 6.83722C17.4481 6.83722 18.566 7.3003 19.3903 8.12459C20.2146 8.94888 20.6777 10.0669 20.6777 11.2326C20.6777 12.3983 20.2146 13.5163 19.3903 14.3406C18.566 15.1648 17.4481 15.6279 16.2823 15.6279C15.1166 15.6279 13.9986 15.1648 13.1744 14.3406C12.3501 13.5163 11.887 12.3983 11.887 11.2326ZM25.8837 9.76745C25.4952 9.76745 25.1225 9.92181 24.8478 10.1966C24.573 10.4713 24.4186 10.844 24.4186 11.2326C24.4186 11.6211 24.573 11.9938 24.8478 12.2686C25.1225 12.5433 25.4952 12.6977 25.8837 12.6977C26.2723 12.6977 26.645 12.5433 26.9197 12.2686C27.1945 11.9938 27.3489 11.6211 27.3489 11.2326C27.3489 10.844 27.1945 10.4713 26.9197 10.1966C26.645 9.92181 26.2723 9.76745 25.8837 9.76745ZM21.4884 11.2326C21.4884 10.0669 21.9515 8.94888 22.7758 8.12459C23.6001 7.3003 24.718 6.83722 25.8837 6.83722C27.0495 6.83722 28.1674 7.3003 28.9917 8.12459C29.816 8.94888 30.2791 10.0669 30.2791 11.2326C30.2791 12.3983 29.816 13.5163 28.9917 14.3406C28.1674 15.1648 27.0495 15.6279 25.8837 15.6279C24.718 15.6279 23.6001 15.1648 22.7758 14.3406C21.9515 13.5163 21.4884 12.3983 21.4884 11.2326ZM10.2558 18.5582C9.86725 18.5582 9.49459 18.7125 9.21983 18.9873C8.94507 19.262 8.79071 19.6347 8.79071 20.0233C8.79071 20.4119 8.94507 20.7845 9.21983 21.0593C9.49459 21.334 9.86725 21.4884 10.2558 21.4884C10.6444 21.4884 11.0171 21.334 11.2918 21.0593C11.5666 20.7845 11.7209 20.4119 11.7209 20.0233C11.7209 19.6347 11.5666 19.262 11.2918 18.9873C11.0171 18.7125 10.6444 18.5582 10.2558 18.5582ZM5.86047 20.0233C5.86047 18.8576 6.32355 17.7396 7.14784 16.9153C7.97213 16.091 9.09011 15.6279 10.2558 15.6279C11.4215 15.6279 12.5395 16.091 13.3638 16.9153C14.1881 17.7396 14.6512 18.8576 14.6512 20.0233C14.6512 21.189 14.1881 22.307 13.3638 23.1313C12.5395 23.9556 11.4215 24.4186 10.2558 24.4186C9.09011 24.4186 7.97213 23.9556 7.14784 23.1313C6.32355 22.307 5.86047 21.189 5.86047 20.0233ZM31.7442 18.5582C31.3556 18.5582 30.983 18.7125 30.7082 18.9873C30.4335 19.262 30.2791 19.6347 30.2791 20.0233C30.2791 20.4119 30.4335 20.7845 30.7082 21.0593C30.983 21.334 31.3556 21.4884 31.7442 21.4884C32.1328 21.4884 32.5055 21.334 32.7802 21.0593C33.055 20.7845 33.2093 20.4119 33.2093 20.0233C33.2093 19.6347 33.055 19.262 32.7802 18.9873C32.5055 18.7125 32.1328 18.5582 31.7442 18.5582ZM27.3489 20.0233C27.3489 19.4461 27.4626 18.8745 27.6834 18.3412C27.9043 17.808 28.2281 17.3234 28.6362 16.9153C29.0444 16.5071 29.5289 16.1834 30.0622 15.9625C30.5955 15.7416 31.167 15.6279 31.7442 15.6279C32.3214 15.6279 32.893 15.7416 33.4263 15.9625C33.9595 16.1834 34.4441 16.5071 34.8522 16.9153C35.2603 17.3234 35.5841 17.808 35.805 18.3412C36.0259 18.8745 36.1396 19.4461 36.1396 20.0233C36.1396 21.189 35.6765 22.307 34.8522 23.1313C34.0279 23.9556 32.9099 24.4186 31.7442 24.4186C30.5785 24.4186 29.4605 23.9556 28.6362 23.1313C27.8119 22.307 27.3489 21.189 27.3489 20.0233Z" fill="#E97000"/>
</svg>
